<mxfile host="65bd71144e">
    <diagram id="be_Q4Zl5YuFEPfHfto0s" name="iş-akış diagramı">
        <mxGraphModel dx="3880" dy="2182" grid="1" gridSize="10" guides="1" tooltips="1" connect="1" arrows="1" fold="1" page="0" pageScale="1" pageWidth="850" pageHeight="1100" background="none" math="0" shadow="0">
            <root>
                <mxCell id="0"/>
                <mxCell id="1" parent="0"/>
                <mxCell id="-DDFotfa-9J-LbpP167z-4" value="" style="edgeStyle=orthogonalEdgeStyle;rounded=0;orthogonalLoop=1;jettySize=auto;html=1;" edge="1" parent="1" target="-DDFotfa-9J-LbpP167z-7">
                    <mxGeometry relative="1" as="geometry">
                        <mxPoint x="425" y="80" as="sourcePoint"/>
                        <Array as="points">
                            <mxPoint x="425" y="160"/>
                            <mxPoint x="425" y="160"/>
                        </Array>
                    </mxGeometry>
                </mxCell>
                <mxCell id="-DDFotfa-9J-LbpP167z-5" style="edgeStyle=orthogonalEdgeStyle;rounded=0;orthogonalLoop=1;jettySize=auto;html=1;" edge="1" parent="1" source="-DDFotfa-9J-LbpP167z-7">
                    <mxGeometry relative="1" as="geometry">
                        <mxPoint x="680" y="220" as="targetPoint"/>
                    </mxGeometry>
                </mxCell>
                <mxCell id="-DDFotfa-9J-LbpP167z-6" style="edgeStyle=orthogonalEdgeStyle;rounded=0;orthogonalLoop=1;jettySize=auto;html=1;" edge="1" parent="1" source="-DDFotfa-9J-LbpP167z-7">
                    <mxGeometry relative="1" as="geometry">
                        <mxPoint x="190" y="220" as="targetPoint"/>
                    </mxGeometry>
                </mxCell>
                <mxCell id="-DDFotfa-9J-LbpP167z-7" value="Dosya Türü" style="strokeWidth=2;html=1;shape=mxgraph.flowchart.decision;whiteSpace=wrap;" vertex="1" parent="1">
                    <mxGeometry x="378" y="210" width="95" height="100" as="geometry"/>
                </mxCell>
                <mxCell id="-DDFotfa-9J-LbpP167z-8" style="edgeStyle=orthogonalEdgeStyle;rounded=0;orthogonalLoop=1;jettySize=auto;html=1;exitX=0.5;exitY=1;exitDx=0;exitDy=0;entryX=0.175;entryY=0.017;entryDx=0;entryDy=0;entryPerimeter=0;" edge="1" parent="1" source="-DDFotfa-9J-LbpP167z-9" target="-DDFotfa-9J-LbpP167z-17">
                    <mxGeometry relative="1" as="geometry"/>
                </mxCell>
                <mxCell id="-DDFotfa-9J-LbpP167z-9" value="Girilen veri okunur ve uniquId, layer Id ve F_ID değerleri yazdırılır ve geojson objesine çevrilir" style="rounded=0;whiteSpace=wrap;html=1;" vertex="1" parent="1">
                    <mxGeometry x="50" y="200" width="140" height="70" as="geometry"/>
                </mxCell>
                <mxCell id="-DDFotfa-9J-LbpP167z-10" value=".shp" style="text;html=1;align=center;verticalAlign=middle;resizable=0;points=[];autosize=1;strokeColor=none;fillColor=none;" vertex="1" parent="1">
                    <mxGeometry x="285" y="218" width="50" height="30" as="geometry"/>
                </mxCell>
                <mxCell id="-DDFotfa-9J-LbpP167z-11" value=".json" style="text;html=1;align=center;verticalAlign=middle;resizable=0;points=[];autosize=1;strokeColor=none;fillColor=none;" vertex="1" parent="1">
                    <mxGeometry x="555" y="198" width="50" height="30" as="geometry"/>
                </mxCell>
                <mxCell id="-DDFotfa-9J-LbpP167z-12" style="edgeStyle=orthogonalEdgeStyle;rounded=0;orthogonalLoop=1;jettySize=auto;html=1;entryX=1;entryY=0.5;entryDx=0;entryDy=0;" edge="1" parent="1" source="-DDFotfa-9J-LbpP167z-13" target="-DDFotfa-9J-LbpP167z-19">
                    <mxGeometry relative="1" as="geometry">
                        <Array as="points">
                            <mxPoint x="770" y="415"/>
                        </Array>
                    </mxGeometry>
                </mxCell>
                <mxCell id="-DDFotfa-9J-LbpP167z-13" value="Girilen veri okunur ve uniquId, layer Id ve F_ID değerleri yazdırılır ve geojson objesine çevrilir" style="rounded=0;whiteSpace=wrap;html=1;" vertex="1" parent="1">
                    <mxGeometry x="680" y="200" width="140" height="70" as="geometry"/>
                </mxCell>
                <mxCell id="-DDFotfa-9J-LbpP167z-14" style="edgeStyle=orthogonalEdgeStyle;rounded=0;orthogonalLoop=1;jettySize=auto;html=1;exitX=1;exitY=0.15;exitDx=0;exitDy=0;exitPerimeter=0;entryX=0.557;entryY=1.056;entryDx=0;entryDy=0;entryPerimeter=0;" edge="1" parent="1" source="-DDFotfa-9J-LbpP167z-15" target="-DDFotfa-9J-LbpP167z-56">
                    <mxGeometry relative="1" as="geometry">
                        <mxPoint x="900" y="310" as="targetPoint"/>
                    </mxGeometry>
                </mxCell>
                <mxCell id="-DDFotfa-9J-LbpP167z-15" value="React Store" style="strokeWidth=2;html=1;shape=mxgraph.flowchart.database;whiteSpace=wrap;" vertex="1" parent="1">
                    <mxGeometry x="395.5" y="370" width="54.5" height="90" as="geometry"/>
                </mxCell>
                <mxCell id="-DDFotfa-9J-LbpP167z-16" style="edgeStyle=orthogonalEdgeStyle;rounded=0;orthogonalLoop=1;jettySize=auto;html=1;" edge="1" parent="1" source="-DDFotfa-9J-LbpP167z-17" target="-DDFotfa-9J-LbpP167z-15">
                    <mxGeometry relative="1" as="geometry"/>
                </mxCell>
                <mxCell id="-DDFotfa-9J-LbpP167z-17" value="Veri LayersData Contextine yazılır" style="rounded=0;whiteSpace=wrap;html=1;" vertex="1" parent="1">
                    <mxGeometry x="70" y="385" width="150" height="60" as="geometry"/>
                </mxCell>
                <mxCell id="-DDFotfa-9J-LbpP167z-18" style="edgeStyle=orthogonalEdgeStyle;rounded=0;orthogonalLoop=1;jettySize=auto;html=1;entryX=1;entryY=0.5;entryDx=0;entryDy=0;entryPerimeter=0;" edge="1" parent="1" source="-DDFotfa-9J-LbpP167z-19" target="-DDFotfa-9J-LbpP167z-15">
                    <mxGeometry relative="1" as="geometry"/>
                </mxCell>
                <mxCell id="-DDFotfa-9J-LbpP167z-19" value="Veri LayersData Contextine yazılır" style="rounded=0;whiteSpace=wrap;html=1;" vertex="1" parent="1">
                    <mxGeometry x="630" y="385" width="120" height="60" as="geometry"/>
                </mxCell>
                <mxCell id="-DDFotfa-9J-LbpP167z-20" style="edgeStyle=orthogonalEdgeStyle;rounded=0;orthogonalLoop=1;jettySize=auto;html=1;entryX=0.5;entryY=0;entryDx=0;entryDy=0;entryPerimeter=0;" edge="1" parent="1" source="-DDFotfa-9J-LbpP167z-22" target="-DDFotfa-9J-LbpP167z-24">
                    <mxGeometry relative="1" as="geometry">
                        <mxPoint x="415" y="600" as="targetPoint"/>
                    </mxGeometry>
                </mxCell>
                <mxCell id="-DDFotfa-9J-LbpP167z-21" style="edgeStyle=orthogonalEdgeStyle;rounded=0;orthogonalLoop=1;jettySize=auto;html=1;" edge="1" parent="1" source="-DDFotfa-9J-LbpP167z-22" target="-DDFotfa-9J-LbpP167z-31">
                    <mxGeometry relative="1" as="geometry">
                        <mxPoint x="700" y="680" as="targetPoint"/>
                    </mxGeometry>
                </mxCell>
                <mxCell id="-DDFotfa-9J-LbpP167z-22" value="LayersContext" style="text;html=1;align=center;verticalAlign=middle;resizable=0;points=[];autosize=1;strokeColor=none;fillColor=none;" vertex="1" parent="1">
                    <mxGeometry x="365" y="460" width="100" height="30" as="geometry"/>
                </mxCell>
                <mxCell id="-DDFotfa-9J-LbpP167z-23" style="edgeStyle=orthogonalEdgeStyle;rounded=0;orthogonalLoop=1;jettySize=auto;html=1;exitX=0.75;exitY=0;exitDx=0;exitDy=0;exitPerimeter=0;" edge="1" parent="1" source="-DDFotfa-9J-LbpP167z-24">
                    <mxGeometry relative="1" as="geometry">
                        <mxPoint x="490" y="660" as="targetPoint"/>
                    </mxGeometry>
                </mxCell>
                <mxCell id="-DDFotfa-9J-LbpP167z-24" value="Map" style="strokeWidth=2;html=1;shape=mxgraph.flowchart.document2;whiteSpace=wrap;size=0.25;" vertex="1" parent="1">
                    <mxGeometry x="365" y="580" width="100" height="60" as="geometry"/>
                </mxCell>
                <mxCell id="-DDFotfa-9J-LbpP167z-25" style="edgeStyle=orthogonalEdgeStyle;rounded=0;orthogonalLoop=1;jettySize=auto;html=1;entryX=0;entryY=0.5;entryDx=0;entryDy=0;" edge="1" parent="1" source="-DDFotfa-9J-LbpP167z-27" target="n_WMjLu4xDoGNGpIFZmZ-3">
                    <mxGeometry relative="1" as="geometry">
                        <mxPoint x="810" y="740" as="targetPoint"/>
                        <Array as="points">
                            <mxPoint x="518" y="616"/>
                            <mxPoint x="520" y="616"/>
                            <mxPoint x="520" y="530"/>
                            <mxPoint x="650" y="530"/>
                            <mxPoint x="650" y="710"/>
                        </Array>
                    </mxGeometry>
                </mxCell>
                <mxCell id="-DDFotfa-9J-LbpP167z-26" style="edgeStyle=orthogonalEdgeStyle;rounded=0;orthogonalLoop=1;jettySize=auto;html=1;entryX=1;entryY=0.5;entryDx=0;entryDy=0;" edge="1" parent="1" source="-DDFotfa-9J-LbpP167z-27" target="-DDFotfa-9J-LbpP167z-33">
                    <mxGeometry relative="1" as="geometry"/>
                </mxCell>
                <mxCell id="-DDFotfa-9J-LbpP167z-27" value="React Store" style="strokeWidth=2;html=1;shape=mxgraph.flowchart.database;whiteSpace=wrap;" vertex="1" parent="1">
                    <mxGeometry x="480" y="670" width="70" height="80" as="geometry"/>
                </mxCell>
                <mxCell id="-DDFotfa-9J-LbpP167z-28" value="ActiveLayer" style="text;html=1;align=center;verticalAlign=middle;resizable=0;points=[];autosize=1;strokeColor=none;fillColor=none;" vertex="1" parent="1">
                    <mxGeometry x="473" y="740" width="90" height="30" as="geometry"/>
                </mxCell>
                <mxCell id="-DDFotfa-9J-LbpP167z-32" style="edgeStyle=orthogonalEdgeStyle;rounded=0;orthogonalLoop=1;jettySize=auto;html=1;entryX=0.02;entryY=0.924;entryDx=0;entryDy=0;entryPerimeter=0;" edge="1" parent="1" source="-DDFotfa-9J-LbpP167z-33" target="-DDFotfa-9J-LbpP167z-24">
                    <mxGeometry relative="1" as="geometry"/>
                </mxCell>
                <mxCell id="-DDFotfa-9J-LbpP167z-33" value="Filter Method" style="whiteSpace=wrap;html=1;" vertex="1" parent="1">
                    <mxGeometry x="305.5" y="760" width="90" height="30" as="geometry"/>
                </mxCell>
                <mxCell id="n_WMjLu4xDoGNGpIFZmZ-12" style="edgeStyle=none;html=1;strokeColor=#E9F0EE;fontSize=13;entryX=1;entryY=0.5;entryDx=0;entryDy=0;" edge="1" parent="1" source="-DDFotfa-9J-LbpP167z-34" target="-DDFotfa-9J-LbpP167z-33">
                    <mxGeometry relative="1" as="geometry">
                        <mxPoint x="410" y="775" as="targetPoint"/>
                    </mxGeometry>
                </mxCell>
                <mxCell id="-DDFotfa-9J-LbpP167z-34" value="ActiveFature" style="text;html=1;align=center;verticalAlign=middle;resizable=0;points=[];autosize=1;strokeColor=none;fillColor=none;" vertex="1" parent="1">
                    <mxGeometry x="473" y="760" width="90" height="30" as="geometry"/>
                </mxCell>
                <mxCell id="-DDFotfa-9J-LbpP167z-35" value="Attribute table" style="swimlane;whiteSpace=wrap;html=1;fillColor=#f8cecc;strokeColor=#b85450;" vertex="1" parent="1">
                    <mxGeometry x="690" y="540" width="520" height="470" as="geometry">
                        <mxRectangle x="690" y="540" width="120" height="30" as="alternateBounds"/>
                    </mxGeometry>
                </mxCell>
                <mxCell id="-DDFotfa-9J-LbpP167z-36" value="Table" style="strokeWidth=2;html=1;shape=mxgraph.flowchart.document2;whiteSpace=wrap;size=0.25;" vertex="1" parent="-DDFotfa-9J-LbpP167z-35">
                    <mxGeometry x="170" y="370" width="100" height="60" as="geometry"/>
                </mxCell>
                <mxCell id="n_WMjLu4xDoGNGpIFZmZ-2" style="edgeStyle=none;html=1;entryX=0.414;entryY=-0.011;entryDx=0;entryDy=0;entryPerimeter=0;strokeColor=#E9F0EE;fontSize=13;" edge="1" parent="-DDFotfa-9J-LbpP167z-35" source="-DDFotfa-9J-LbpP167z-31" target="-DDFotfa-9J-LbpP167z-30">
                    <mxGeometry relative="1" as="geometry"/>
                </mxCell>
                <mxCell id="-DDFotfa-9J-LbpP167z-31" value="Active olan layer filtrelenir" style="whiteSpace=wrap;html=1;" vertex="1" parent="-DDFotfa-9J-LbpP167z-35">
                    <mxGeometry x="320" y="40" width="120" height="40" as="geometry"/>
                </mxCell>
                <mxCell id="-DDFotfa-9J-LbpP167z-30" value="Table DataGrid Objesi" style="whiteSpace=wrap;html=1;" vertex="1" parent="-DDFotfa-9J-LbpP167z-35">
                    <mxGeometry x="330" y="140" width="120" height="60" as="geometry"/>
                </mxCell>
                <mxCell id="-DDFotfa-9J-LbpP167z-29" style="edgeStyle=orthogonalEdgeStyle;rounded=0;orthogonalLoop=1;jettySize=auto;html=1;entryX=0.5;entryY=0;entryDx=0;entryDy=0;entryPerimeter=0;" edge="1" parent="-DDFotfa-9J-LbpP167z-35" source="-DDFotfa-9J-LbpP167z-30" target="-DDFotfa-9J-LbpP167z-36">
                    <mxGeometry relative="1" as="geometry">
                        <mxPoint x="-380" y="320" as="targetPoint"/>
                        <Array as="points">
                            <mxPoint x="220" y="360"/>
                        </Array>
                    </mxGeometry>
                </mxCell>
                <mxCell id="n_WMjLu4xDoGNGpIFZmZ-6" style="edgeStyle=none;html=1;entryX=0;entryY=0.5;entryDx=0;entryDy=0;strokeColor=#E9F0EE;fontSize=13;" edge="1" parent="-DDFotfa-9J-LbpP167z-35" source="n_WMjLu4xDoGNGpIFZmZ-3" target="-DDFotfa-9J-LbpP167z-30">
                    <mxGeometry relative="1" as="geometry"/>
                </mxCell>
                <mxCell id="n_WMjLu4xDoGNGpIFZmZ-3" value="selection Model için active olan feature filtrelenir" style="whiteSpace=wrap;html=1;dashed=1;dashPattern=1 4;strokeColor=#E9F0EE;strokeWidth=0;fontSize=13;" vertex="1" parent="-DDFotfa-9J-LbpP167z-35">
                    <mxGeometry x="120" y="140" width="120" height="60" as="geometry"/>
                </mxCell>
                <mxCell id="-DDFotfa-9J-LbpP167z-37" value="Wms Load" style="swimlane;whiteSpace=wrap;html=1;" vertex="1" parent="1">
                    <mxGeometry x="-650" y="410" width="570" height="180" as="geometry">
                        <mxRectangle x="-320" y="540" width="100" height="30" as="alternateBounds"/>
                    </mxGeometry>
                </mxCell>
                <mxCell id="-DDFotfa-9J-LbpP167z-38" value="AddWms Layer" style="whiteSpace=wrap;html=1;" vertex="1" parent="-DDFotfa-9J-LbpP167z-37">
                    <mxGeometry x="390" y="105" width="120" height="60" as="geometry"/>
                </mxCell>
                <mxCell id="-DDFotfa-9J-LbpP167z-39" style="edgeStyle=orthogonalEdgeStyle;rounded=0;orthogonalLoop=1;jettySize=auto;html=1;" edge="1" parent="-DDFotfa-9J-LbpP167z-37" source="-DDFotfa-9J-LbpP167z-40">
                    <mxGeometry relative="1" as="geometry">
                        <mxPoint x="260" y="69.99999999999977" as="targetPoint"/>
                    </mxGeometry>
                </mxCell>
                <mxCell id="-DDFotfa-9J-LbpP167z-40" value="Kullanıcıdan parametreler alınır" style="shape=parallelogram;perimeter=parallelogramPerimeter;whiteSpace=wrap;html=1;fixedSize=1;" vertex="1" parent="-DDFotfa-9J-LbpP167z-37">
                    <mxGeometry x="10" y="40" width="120" height="60" as="geometry"/>
                </mxCell>
                <mxCell id="-DDFotfa-9J-LbpP167z-41" style="edgeStyle=orthogonalEdgeStyle;rounded=0;orthogonalLoop=1;jettySize=auto;html=1;exitX=1;exitY=0.5;exitDx=0;exitDy=0;exitPerimeter=0;entryX=0.5;entryY=0;entryDx=0;entryDy=0;" edge="1" parent="-DDFotfa-9J-LbpP167z-37" source="-DDFotfa-9J-LbpP167z-42" target="-DDFotfa-9J-LbpP167z-38">
                    <mxGeometry relative="1" as="geometry"/>
                </mxCell>
                <mxCell id="-DDFotfa-9J-LbpP167z-42" value="React Store" style="shape=cylinder3;whiteSpace=wrap;html=1;boundedLbl=1;backgroundOutline=1;size=15;" vertex="1" parent="-DDFotfa-9J-LbpP167z-37">
                    <mxGeometry x="260" y="40" width="60" height="80" as="geometry"/>
                </mxCell>
                <mxCell id="-DDFotfa-9J-LbpP167z-43" value="WMS Layer" style="text;html=1;align=center;verticalAlign=middle;resizable=0;points=[];autosize=1;strokeColor=none;fillColor=none;" vertex="1" parent="-DDFotfa-9J-LbpP167z-37">
                    <mxGeometry x="245" y="120" width="90" height="30" as="geometry"/>
                </mxCell>
                <mxCell id="-DDFotfa-9J-LbpP167z-44" value="Kullanıcı .zip( shapefile) veya .geojson yükler" style="shape=parallelogram;perimeter=parallelogramPerimeter;whiteSpace=wrap;html=1;fixedSize=1;" vertex="1" parent="1">
                    <mxGeometry x="365.5" y="20" width="120" height="60" as="geometry"/>
                </mxCell>
                <mxCell id="-DDFotfa-9J-LbpP167z-45" style="edgeStyle=orthogonalEdgeStyle;rounded=0;orthogonalLoop=1;jettySize=auto;html=1;entryX=0;entryY=0.5;entryDx=0;entryDy=0;entryPerimeter=0;" edge="1" parent="1" source="-DDFotfa-9J-LbpP167z-38" target="-DDFotfa-9J-LbpP167z-24">
                    <mxGeometry relative="1" as="geometry"/>
                </mxCell>
                <mxCell id="-DDFotfa-9J-LbpP167z-46" value="Raster Load" style="swimlane;whiteSpace=wrap;html=1;" vertex="1" parent="1">
                    <mxGeometry x="-650" y="750" width="570" height="180" as="geometry">
                        <mxRectangle x="-350" y="700" width="100" height="30" as="alternateBounds"/>
                    </mxGeometry>
                </mxCell>
                <mxCell id="-DDFotfa-9J-LbpP167z-47" style="edgeStyle=orthogonalEdgeStyle;rounded=0;orthogonalLoop=1;jettySize=auto;html=1;" edge="1" parent="-DDFotfa-9J-LbpP167z-46" source="-DDFotfa-9J-LbpP167z-48">
                    <mxGeometry relative="1" as="geometry">
                        <mxPoint x="260" y="69.99999999999977" as="targetPoint"/>
                    </mxGeometry>
                </mxCell>
                <mxCell id="-DDFotfa-9J-LbpP167z-48" value="Kulanıcıdan .tiff uzantılı dosya alınır" style="shape=parallelogram;perimeter=parallelogramPerimeter;whiteSpace=wrap;html=1;fixedSize=1;" vertex="1" parent="-DDFotfa-9J-LbpP167z-46">
                    <mxGeometry x="10" y="40" width="180" height="60" as="geometry"/>
                </mxCell>
                <mxCell id="-DDFotfa-9J-LbpP167z-49" value="ParseGeoTiff" style="whiteSpace=wrap;html=1;" vertex="1" parent="-DDFotfa-9J-LbpP167z-46">
                    <mxGeometry x="420" y="90" width="120" height="60" as="geometry"/>
                </mxCell>
                <mxCell id="-DDFotfa-9J-LbpP167z-50" style="edgeStyle=orthogonalEdgeStyle;rounded=0;orthogonalLoop=1;jettySize=auto;html=1;entryX=0.326;entryY=0.006;entryDx=0;entryDy=0;entryPerimeter=0;" edge="1" parent="-DDFotfa-9J-LbpP167z-46" source="-DDFotfa-9J-LbpP167z-51" target="-DDFotfa-9J-LbpP167z-49">
                    <mxGeometry relative="1" as="geometry"/>
                </mxCell>
                <mxCell id="-DDFotfa-9J-LbpP167z-51" value="React Store" style="shape=cylinder3;whiteSpace=wrap;html=1;boundedLbl=1;backgroundOutline=1;size=15;" vertex="1" parent="-DDFotfa-9J-LbpP167z-46">
                    <mxGeometry x="270" y="30" width="60" height="80" as="geometry"/>
                </mxCell>
                <mxCell id="-DDFotfa-9J-LbpP167z-52" value="RasterLayer" style="text;html=1;align=center;verticalAlign=middle;resizable=0;points=[];autosize=1;strokeColor=none;fillColor=none;" vertex="1" parent="-DDFotfa-9J-LbpP167z-46">
                    <mxGeometry x="260" y="110" width="90" height="30" as="geometry"/>
                </mxCell>
                <mxCell id="-DDFotfa-9J-LbpP167z-53" style="edgeStyle=orthogonalEdgeStyle;rounded=0;orthogonalLoop=1;jettySize=auto;html=1;entryX=0;entryY=0.75;entryDx=0;entryDy=0;entryPerimeter=0;" edge="1" parent="1" source="-DDFotfa-9J-LbpP167z-49" target="-DDFotfa-9J-LbpP167z-24">
                    <mxGeometry relative="1" as="geometry">
                        <mxPoint x="280" y="630" as="targetPoint"/>
                    </mxGeometry>
                </mxCell>
                <mxCell id="-DDFotfa-9J-LbpP167z-54" value="Konumsal Sorgu Aracı" style="swimlane;whiteSpace=wrap;html=1;" vertex="1" parent="1">
                    <mxGeometry x="900" y="-70" width="1720" height="480" as="geometry">
                        <mxRectangle x="900" y="-70" width="170" height="30" as="alternateBounds"/>
                    </mxGeometry>
                </mxCell>
                <mxCell id="-DDFotfa-9J-LbpP167z-55" style="edgeStyle=orthogonalEdgeStyle;rounded=0;orthogonalLoop=1;jettySize=auto;html=1;" edge="1" parent="-DDFotfa-9J-LbpP167z-54" source="-DDFotfa-9J-LbpP167z-56" target="-DDFotfa-9J-LbpP167z-58">
                    <mxGeometry relative="1" as="geometry"/>
                </mxCell>
                <mxCell id="-DDFotfa-9J-LbpP167z-56" value="Girdi olarak verilecek katmanlar listelenir" style="whiteSpace=wrap;html=1;" vertex="1" parent="-DDFotfa-9J-LbpP167z-54">
                    <mxGeometry x="10" y="370" width="120" height="60" as="geometry"/>
                </mxCell>
                <mxCell id="-DDFotfa-9J-LbpP167z-57" style="edgeStyle=orthogonalEdgeStyle;rounded=0;orthogonalLoop=1;jettySize=auto;html=1;entryX=0;entryY=0.5;entryDx=0;entryDy=0;" edge="1" parent="-DDFotfa-9J-LbpP167z-54" source="-DDFotfa-9J-LbpP167z-58" target="-DDFotfa-9J-LbpP167z-62">
                    <mxGeometry relative="1" as="geometry"/>
                </mxCell>
                <mxCell id="-DDFotfa-9J-LbpP167z-58" value="Katmanlar backend servisine gider" style="whiteSpace=wrap;html=1;" vertex="1" parent="-DDFotfa-9J-LbpP167z-54">
                    <mxGeometry x="170" y="240" width="120" height="60" as="geometry"/>
                </mxCell>
                <mxCell id="-DDFotfa-9J-LbpP167z-59" style="edgeStyle=orthogonalEdgeStyle;rounded=0;orthogonalLoop=1;jettySize=auto;html=1;" edge="1" parent="-DDFotfa-9J-LbpP167z-54" source="-DDFotfa-9J-LbpP167z-62">
                    <mxGeometry relative="1" as="geometry">
                        <mxPoint x="459.99999999999955" y="149.99999999999977" as="targetPoint"/>
                    </mxGeometry>
                </mxCell>
                <mxCell id="-DDFotfa-9J-LbpP167z-60" style="edgeStyle=orthogonalEdgeStyle;rounded=0;orthogonalLoop=1;jettySize=auto;html=1;" edge="1" parent="-DDFotfa-9J-LbpP167z-54" source="-DDFotfa-9J-LbpP167z-62">
                    <mxGeometry relative="1" as="geometry">
                        <mxPoint x="460" y="410" as="targetPoint"/>
                    </mxGeometry>
                </mxCell>
                <mxCell id="-DDFotfa-9J-LbpP167z-61" style="edgeStyle=orthogonalEdgeStyle;rounded=0;orthogonalLoop=1;jettySize=auto;html=1;entryX=0;entryY=0.5;entryDx=0;entryDy=0;" edge="1" parent="-DDFotfa-9J-LbpP167z-54" source="-DDFotfa-9J-LbpP167z-62" target="-DDFotfa-9J-LbpP167z-68">
                    <mxGeometry relative="1" as="geometry"/>
                </mxCell>
                <mxCell id="-DDFotfa-9J-LbpP167z-62" value="" style="rhombus;whiteSpace=wrap;html=1;" vertex="1" parent="-DDFotfa-9J-LbpP167z-54">
                    <mxGeometry x="420" y="230" width="80" height="80" as="geometry"/>
                </mxCell>
                <mxCell id="-DDFotfa-9J-LbpP167z-63" style="edgeStyle=orthogonalEdgeStyle;rounded=0;orthogonalLoop=1;jettySize=auto;html=1;" edge="1" parent="-DDFotfa-9J-LbpP167z-54" source="-DDFotfa-9J-LbpP167z-64">
                    <mxGeometry relative="1" as="geometry">
                        <mxPoint x="680" y="110" as="targetPoint"/>
                    </mxGeometry>
                </mxCell>
                <mxCell id="-DDFotfa-9J-LbpP167z-64" value="Poligon- poligon ise" style="rounded=0;whiteSpace=wrap;html=1;" vertex="1" parent="-DDFotfa-9J-LbpP167z-54">
                    <mxGeometry x="400" y="80" width="120" height="60" as="geometry"/>
                </mxCell>
                <mxCell id="-DDFotfa-9J-LbpP167z-65" style="edgeStyle=orthogonalEdgeStyle;rounded=0;orthogonalLoop=1;jettySize=auto;html=1;" edge="1" parent="-DDFotfa-9J-LbpP167z-54" source="-DDFotfa-9J-LbpP167z-66">
                    <mxGeometry relative="1" as="geometry">
                        <mxPoint x="750" y="440" as="targetPoint"/>
                    </mxGeometry>
                </mxCell>
                <mxCell id="-DDFotfa-9J-LbpP167z-66" value="Poligon-Line" style="whiteSpace=wrap;html=1;" vertex="1" parent="-DDFotfa-9J-LbpP167z-54">
                    <mxGeometry x="400" y="410" width="120" height="60" as="geometry"/>
                </mxCell>
                <mxCell id="-DDFotfa-9J-LbpP167z-67" style="edgeStyle=orthogonalEdgeStyle;rounded=0;orthogonalLoop=1;jettySize=auto;html=1;" edge="1" parent="-DDFotfa-9J-LbpP167z-54" source="-DDFotfa-9J-LbpP167z-68">
                    <mxGeometry relative="1" as="geometry">
                        <mxPoint x="820" y="270" as="targetPoint"/>
                    </mxGeometry>
                </mxCell>
                <mxCell id="-DDFotfa-9J-LbpP167z-68" value="Poligon-Point" style="whiteSpace=wrap;html=1;" vertex="1" parent="-DDFotfa-9J-LbpP167z-54">
                    <mxGeometry x="580" y="240" width="120" height="60" as="geometry"/>
                </mxCell>
                <mxCell id="-DDFotfa-9J-LbpP167z-69" style="edgeStyle=orthogonalEdgeStyle;rounded=0;orthogonalLoop=1;jettySize=auto;html=1;entryX=0;entryY=0.5;entryDx=0;entryDy=0;entryPerimeter=0;" edge="1" parent="-DDFotfa-9J-LbpP167z-54" source="-DDFotfa-9J-LbpP167z-70" target="-DDFotfa-9J-LbpP167z-77">
                    <mxGeometry relative="1" as="geometry">
                        <mxPoint x="1100" y="270" as="targetPoint"/>
                    </mxGeometry>
                </mxCell>
                <mxCell id="-DDFotfa-9J-LbpP167z-70" value="getPointsIfInside" style="whiteSpace=wrap;html=1;" vertex="1" parent="-DDFotfa-9J-LbpP167z-54">
                    <mxGeometry x="820" y="240" width="120" height="60" as="geometry"/>
                </mxCell>
                <mxCell id="-DDFotfa-9J-LbpP167z-71" style="edgeStyle=orthogonalEdgeStyle;rounded=0;orthogonalLoop=1;jettySize=auto;html=1;entryX=0.5;entryY=1;entryDx=0;entryDy=0;entryPerimeter=0;" edge="1" parent="-DDFotfa-9J-LbpP167z-54" source="-DDFotfa-9J-LbpP167z-72" target="-DDFotfa-9J-LbpP167z-77">
                    <mxGeometry relative="1" as="geometry">
                        <mxPoint x="1160" y="320" as="targetPoint"/>
                    </mxGeometry>
                </mxCell>
                <mxCell id="-DDFotfa-9J-LbpP167z-72" value="getLineStringIfInside" style="whiteSpace=wrap;html=1;" vertex="1" parent="-DDFotfa-9J-LbpP167z-54">
                    <mxGeometry x="750" y="410" width="120" height="60" as="geometry"/>
                </mxCell>
                <mxCell id="-DDFotfa-9J-LbpP167z-73" style="edgeStyle=orthogonalEdgeStyle;rounded=0;orthogonalLoop=1;jettySize=auto;html=1;entryX=0.5;entryY=0;entryDx=0;entryDy=0;entryPerimeter=0;" edge="1" parent="-DDFotfa-9J-LbpP167z-54" source="-DDFotfa-9J-LbpP167z-74" target="-DDFotfa-9J-LbpP167z-77">
                    <mxGeometry relative="1" as="geometry">
                        <mxPoint x="1140" y="170" as="targetPoint"/>
                    </mxGeometry>
                </mxCell>
                <mxCell id="-DDFotfa-9J-LbpP167z-74" value="getPolygonInside" style="whiteSpace=wrap;html=1;" vertex="1" parent="-DDFotfa-9J-LbpP167z-54">
                    <mxGeometry x="680" y="80" width="120" height="60" as="geometry"/>
                </mxCell>
                <mxCell id="-DDFotfa-9J-LbpP167z-75" value="" style="shape=tape;whiteSpace=wrap;html=1;" vertex="1" parent="-DDFotfa-9J-LbpP167z-54">
                    <mxGeometry x="1520" y="188" width="120" height="100" as="geometry"/>
                </mxCell>
                <mxCell id="-DDFotfa-9J-LbpP167z-76" style="edgeStyle=orthogonalEdgeStyle;rounded=0;orthogonalLoop=1;jettySize=auto;html=1;" edge="1" parent="-DDFotfa-9J-LbpP167z-54" source="-DDFotfa-9J-LbpP167z-77">
                    <mxGeometry relative="1" as="geometry">
                        <mxPoint x="1280" y="248" as="targetPoint"/>
                    </mxGeometry>
                </mxCell>
                <mxCell id="-DDFotfa-9J-LbpP167z-77" value="React Store" style="shape=cylinder3;whiteSpace=wrap;html=1;boundedLbl=1;backgroundOutline=1;size=15;" vertex="1" parent="-DDFotfa-9J-LbpP167z-54">
                    <mxGeometry x="1130" y="208" width="60" height="80" as="geometry"/>
                </mxCell>
                <mxCell id="-DDFotfa-9J-LbpP167z-78" style="edgeStyle=orthogonalEdgeStyle;rounded=0;orthogonalLoop=1;jettySize=auto;html=1;entryX=0;entryY=0.5;entryDx=0;entryDy=0;entryPerimeter=0;" edge="1" parent="-DDFotfa-9J-LbpP167z-54" source="-DDFotfa-9J-LbpP167z-79" target="-DDFotfa-9J-LbpP167z-75">
                    <mxGeometry relative="1" as="geometry">
                        <mxPoint x="1460" y="248" as="targetPoint"/>
                    </mxGeometry>
                </mxCell>
                <mxCell id="-DDFotfa-9J-LbpP167z-79" value="Filter Method&lt;br&gt;Unique Id" style="whiteSpace=wrap;html=1;" vertex="1" parent="-DDFotfa-9J-LbpP167z-54">
                    <mxGeometry x="1280" y="218" width="120" height="60" as="geometry"/>
                </mxCell>
                <mxCell id="n_WMjLu4xDoGNGpIFZmZ-8" style="edgeStyle=none;html=1;strokeColor=#E9F0EE;fontSize=13;entryX=1;entryY=0.5;entryDx=0;entryDy=0;" edge="1" parent="1" source="-DDFotfa-9J-LbpP167z-36" target="n_WMjLu4xDoGNGpIFZmZ-9">
                    <mxGeometry relative="1" as="geometry">
                        <mxPoint x="610" y="940" as="targetPoint"/>
                    </mxGeometry>
                </mxCell>
                <mxCell id="n_WMjLu4xDoGNGpIFZmZ-10" style="edgeStyle=none;html=1;entryX=0.511;entryY=1.033;entryDx=0;entryDy=0;entryPerimeter=0;strokeColor=#E9F0EE;fontSize=13;" edge="1" parent="1" source="n_WMjLu4xDoGNGpIFZmZ-9" target="-DDFotfa-9J-LbpP167z-34">
                    <mxGeometry relative="1" as="geometry"/>
                </mxCell>
                <mxCell id="n_WMjLu4xDoGNGpIFZmZ-9" value="Table'dan seçilen feature haritada renginin değişmesi için&amp;nbsp;" style="whiteSpace=wrap;html=1;dashed=1;dashPattern=1 4;strokeColor=#E9F0EE;strokeWidth=0;fontSize=13;" vertex="1" parent="1">
                    <mxGeometry x="458" y="910" width="120" height="60" as="geometry"/>
                </mxCell>
            </root>
        </mxGraphModel>
    </diagram>
    <diagram id="pxnFSVVUHk6sy7MwmW7o" name="web service uml">
        <mxGraphModel dx="2072" dy="1344" grid="1" gridSize="100" guides="1" tooltips="1" connect="1" arrows="1" fold="1" page="0" pageScale="1" pageWidth="850" pageHeight="1100" background="none" math="0" shadow="0">
            <root>
                <mxCell id="0"/>
                <mxCell id="1" parent="0"/>
                <mxCell id="QX1KaoFxwTmWZFVywQO2-1" value="&lt;p style=&quot;margin:0px;margin-top:4px;text-align:center;&quot;&gt;&lt;b&gt;DataRequest&lt;/b&gt;&lt;/p&gt;&lt;hr size=&quot;1&quot;/&gt;&lt;p style=&quot;margin:0 0 0 4px;line-height:1.6;&quot;&gt;+ DataRequest(): &lt;/p&gt;&lt;hr size=&quot;1&quot;/&gt;&lt;p style=&quot;margin:0 0 0 4px;line-height:1.6;&quot;&gt;- polygon: MyPolygon&lt;br/&gt;- otherShape: OtherShape&lt;/p&gt;&lt;hr size=&quot;1&quot;/&gt;&lt;p style=&quot;margin:0 0 0 4px;line-height:1.6;&quot;&gt; polygon: MyPolygon&lt;br/&gt; otherShape: OtherShape&lt;/p&gt;" style="verticalAlign=top;align=left;overflow=fill;fontSize=14;fontFamily=Helvetica;html=1;rounded=0;shadow=0;comic=0;labelBackgroundColor=none;strokeWidth=1;strokeColor=#E9F0EE;" vertex="1" parent="1">
                    <mxGeometry x="80" y="630" width="148" height="188" as="geometry"/>
                </mxCell>
                <mxCell id="QX1KaoFxwTmWZFVywQO2-2" value="&lt;p style=&quot;margin:0px;margin-top:4px;text-align:center;&quot;&gt;&lt;b&gt;FeaturesItem&lt;/b&gt;&lt;/p&gt;&lt;hr size=&quot;1&quot;/&gt;&lt;p style=&quot;margin:0 0 0 4px;line-height:1.6;&quot;&gt;+ FeaturesItem(): &lt;/p&gt;&lt;hr size=&quot;1&quot;/&gt;&lt;p style=&quot;margin:0 0 0 4px;line-height:1.6;&quot;&gt;- type: String&lt;br/&gt;- geometry: Geometry&lt;br/&gt;- layerID: Integer&lt;br/&gt;- properties: Properties&lt;/p&gt;&lt;hr size=&quot;1&quot;/&gt;&lt;p style=&quot;margin:0 0 0 4px;line-height:1.6;&quot;&gt; layerID: Integer&lt;br/&gt; type: String&lt;br/&gt; geometry: Geometry&lt;br/&gt; properties: Properties&lt;/p&gt;" style="verticalAlign=top;align=left;overflow=fill;fontSize=14;fontFamily=Helvetica;html=1;rounded=0;shadow=0;comic=0;labelBackgroundColor=none;strokeWidth=1;strokeColor=#E9F0EE;" vertex="1" parent="1">
                    <mxGeometry x="246" y="194" width="182" height="248" as="geometry"/>
                </mxCell>
                <mxCell id="QX1KaoFxwTmWZFVywQO2-3" value="&lt;p style=&quot;margin:0px;margin-top:4px;text-align:center;&quot;&gt;&lt;b&gt;FeaturesItem&lt;/b&gt;&lt;/p&gt;&lt;hr size=&quot;1&quot;/&gt;&lt;p style=&quot;margin:0 0 0 4px;line-height:1.6;&quot;&gt;+ FeaturesItem(): &lt;/p&gt;&lt;hr size=&quot;1&quot;/&gt;&lt;p style=&quot;margin:0 0 0 4px;line-height:1.6;&quot;&gt;- properties: Properties&lt;br/&gt;- geometry: Geometry&lt;br/&gt;- type: String&lt;/p&gt;&lt;hr size=&quot;1&quot;/&gt;&lt;p style=&quot;margin:0 0 0 4px;line-height:1.6;&quot;&gt; type: String&lt;br/&gt; geometry: Geometry&lt;br/&gt; properties: Properties&lt;/p&gt;" style="verticalAlign=top;align=left;overflow=fill;fontSize=14;fontFamily=Helvetica;html=1;rounded=0;shadow=0;comic=0;labelBackgroundColor=none;strokeWidth=1;strokeColor=#E9F0EE;" vertex="1" parent="1">
                    <mxGeometry x="-44" y="217" width="182" height="202" as="geometry"/>
                </mxCell>
                <mxCell id="QX1KaoFxwTmWZFVywQO2-4" value="&lt;p style=&quot;margin:0px;margin-top:4px;text-align:center;&quot;&gt;&lt;i&gt;&amp;lt;&amp;lt;interface&amp;gt;&amp;gt;&lt;/i&gt;&lt;br/&gt;&lt;b&gt;GeoJsonService&lt;/b&gt;&lt;/p&gt;&lt;hr size=&quot;1&quot;/&gt;&lt;p style=&quot;margin:0 0 0 4px;line-height:1.6;&quot;&gt;+ findShapesWithinPolygon(OtherShape, MyPolygon): ResponseEntity&amp;lt;OtherShape&amp;gt;&lt;/p&gt;" style="verticalAlign=top;align=left;overflow=fill;fontSize=14;fontFamily=Helvetica;html=1;rounded=0;shadow=0;comic=0;labelBackgroundColor=none;strokeWidth=1;strokeColor=#E9F0EE;" vertex="1" parent="1">
                    <mxGeometry x="620" y="370" width="175" height="136" as="geometry"/>
                </mxCell>
                <mxCell id="QX1KaoFxwTmWZFVywQO2-5" value="&lt;p style=&quot;margin:0px;margin-top:4px;text-align:center;&quot;&gt;&lt;b&gt;GeoJsonServiceImpl&lt;/b&gt;&lt;/p&gt;&lt;hr size=&quot;1&quot;/&gt;&lt;p style=&quot;margin:0 0 0 4px;line-height:1.6;&quot;&gt;+ GeoJsonServiceImpl(): &lt;/p&gt;&lt;hr size=&quot;1&quot;/&gt;&lt;p style=&quot;margin:0 0 0 4px;line-height:1.6;&quot;&gt;- getPolygonIfInside(OtherShape, List&amp;lt;Polygon&amp;gt;): OtherShape&lt;br/&gt;+ findShapesWithinPolygon(OtherShape, MyPolygon): ResponseEntity&amp;lt;OtherShape&amp;gt;&lt;br/&gt;- getLineStringIfInside(OtherShape, List&amp;lt;Polygon&amp;gt;): OtherShape&lt;br/&gt;- getPointsIfInside(OtherShape, List&amp;lt;Polygon&amp;gt;): OtherShape&lt;/p&gt;" style="verticalAlign=top;align=left;overflow=fill;fontSize=14;fontFamily=Helvetica;html=1;rounded=0;shadow=0;comic=0;labelBackgroundColor=none;strokeWidth=1;strokeColor=#E9F0EE;" vertex="1" parent="1">
                    <mxGeometry x="390" y="770" width="720" height="168" as="geometry"/>
                </mxCell>
                <mxCell id="QX1KaoFxwTmWZFVywQO2-6" value="&lt;p style=&quot;margin:0px;margin-top:4px;text-align:center;&quot;&gt;&lt;b&gt;Geometry&lt;/b&gt;&lt;/p&gt;&lt;hr size=&quot;1&quot;/&gt;&lt;p style=&quot;margin:0 0 0 4px;line-height:1.6;&quot;&gt;+ Geometry(): &lt;/p&gt;&lt;hr size=&quot;1&quot;/&gt;&lt;p style=&quot;margin:0 0 0 4px;line-height:1.6;&quot;&gt;- type: String&lt;br/&gt;- coordinates: List&amp;lt;Object&amp;gt;&lt;/p&gt;&lt;hr size=&quot;1&quot;/&gt;&lt;p style=&quot;margin:0 0 0 4px;line-height:1.6;&quot;&gt; type: String&lt;br/&gt; coordinates: List&amp;lt;Object&amp;gt;&lt;/p&gt;" style="verticalAlign=top;align=left;overflow=fill;fontSize=14;fontFamily=Helvetica;html=1;rounded=0;shadow=0;comic=0;labelBackgroundColor=none;strokeWidth=1;strokeColor=#E9F0EE;" vertex="1" parent="1">
                    <mxGeometry x="500" y="-80" width="207" height="156" as="geometry"/>
                </mxCell>
                <mxCell id="QX1KaoFxwTmWZFVywQO2-7" value="&lt;p style=&quot;margin:0px;margin-top:4px;text-align:center;&quot;&gt;&lt;b&gt;Geometry&lt;/b&gt;&lt;/p&gt;&lt;hr size=&quot;1&quot;/&gt;&lt;p style=&quot;margin:0 0 0 4px;line-height:1.6;&quot;&gt;+ Geometry(): &lt;/p&gt;&lt;hr size=&quot;1&quot;/&gt;&lt;p style=&quot;margin:0 0 0 4px;line-height:1.6;&quot;&gt;- type: String&lt;br/&gt;- coordinates: List&amp;lt;List&amp;lt;List&amp;lt;Object&amp;gt;&amp;gt;&amp;gt;&lt;/p&gt;&lt;hr size=&quot;1&quot;/&gt;&lt;p style=&quot;margin:0 0 0 4px;line-height:1.6;&quot;&gt; type: String&lt;br/&gt; coordinates: List&amp;lt;List&amp;lt;List&amp;lt;Object&amp;gt;&amp;gt;&amp;gt;&lt;/p&gt;" style="verticalAlign=top;align=left;overflow=fill;fontSize=14;fontFamily=Helvetica;html=1;rounded=0;shadow=0;comic=0;labelBackgroundColor=none;strokeWidth=1;strokeColor=#E9F0EE;" vertex="1" parent="1">
                    <mxGeometry x="-740" y="-30" width="287" height="156" as="geometry"/>
                </mxCell>
                <mxCell id="QX1KaoFxwTmWZFVywQO2-8" value="&lt;p style=&quot;margin:0px;margin-top:4px;text-align:center;&quot;&gt;&lt;b&gt;MyPolygon&lt;/b&gt;&lt;/p&gt;&lt;hr size=&quot;1&quot;/&gt;&lt;p style=&quot;margin:0 0 0 4px;line-height:1.6;&quot;&gt;+ MyPolygon(): &lt;/p&gt;&lt;hr size=&quot;1&quot;/&gt;&lt;p style=&quot;margin:0 0 0 4px;line-height:1.6;&quot;&gt;- features: List&amp;lt;FeaturesItem&amp;gt;&lt;br/&gt;- type: String&lt;/p&gt;&lt;hr size=&quot;1&quot;/&gt;&lt;p style=&quot;margin:0 0 0 4px;line-height:1.6;&quot;&gt; features: List&amp;lt;FeaturesItem&amp;gt;&lt;br/&gt; type: String&lt;/p&gt;" style="verticalAlign=top;align=left;overflow=fill;fontSize=14;fontFamily=Helvetica;html=1;rounded=0;shadow=0;comic=0;labelBackgroundColor=none;strokeWidth=1;strokeColor=#E9F0EE;" vertex="1" parent="1">
                    <mxGeometry x="-240" y="506" width="136" height="220" as="geometry"/>
                </mxCell>
                <mxCell id="QX1KaoFxwTmWZFVywQO2-9" value="&lt;p style=&quot;margin:0px;margin-top:4px;text-align:center;&quot;&gt;&lt;b&gt;OtherShape&lt;/b&gt;&lt;/p&gt;&lt;hr size=&quot;1&quot;/&gt;&lt;p style=&quot;margin:0 0 0 4px;line-height:1.6;&quot;&gt;+ OtherShape(): &lt;/p&gt;&lt;hr size=&quot;1&quot;/&gt;&lt;p style=&quot;margin:0 0 0 4px;line-height:1.6;&quot;&gt;- features: List&amp;lt;FeaturesItem&amp;gt;&lt;br/&gt;- type: String&lt;/p&gt;&lt;hr size=&quot;1&quot;/&gt;&lt;p style=&quot;margin:0 0 0 4px;line-height:1.6;&quot;&gt; features: List&amp;lt;FeaturesItem&amp;gt;&lt;br/&gt; type: String&lt;/p&gt;" style="verticalAlign=top;align=left;overflow=fill;fontSize=14;fontFamily=Helvetica;html=1;rounded=0;shadow=0;comic=0;labelBackgroundColor=none;strokeWidth=1;strokeColor=#E9F0EE;" vertex="1" parent="1">
                    <mxGeometry x="313" y="494" width="141" height="186" as="geometry"/>
                </mxCell>
                <mxCell id="QX1KaoFxwTmWZFVywQO2-10" value="&lt;p style=&quot;margin:0px;margin-top:4px;text-align:center;&quot;&gt;&lt;b&gt;Properties&lt;/b&gt;&lt;/p&gt;&lt;hr size=&quot;1&quot;/&gt;&lt;p style=&quot;margin:0 0 0 4px;line-height:1.6;&quot;&gt;+ Properties(): &lt;/p&gt;" style="verticalAlign=top;align=left;overflow=fill;fontSize=14;fontFamily=Helvetica;html=1;rounded=0;shadow=0;comic=0;labelBackgroundColor=none;strokeWidth=1;strokeColor=#E9F0EE;" vertex="1" parent="1">
                    <mxGeometry x="-330" y="-130" width="131" height="67" as="geometry"/>
                </mxCell>
                <mxCell id="QX1KaoFxwTmWZFVywQO2-11" value="&lt;p style=&quot;margin:0px;margin-top:4px;text-align:center;&quot;&gt;&lt;b&gt;Properties&lt;/b&gt;&lt;/p&gt;&lt;hr size=&quot;1&quot;/&gt;&lt;p style=&quot;margin:0 0 0 4px;line-height:1.6;&quot;&gt;+ Properties(): &lt;/p&gt;&lt;hr size=&quot;1&quot;/&gt;&lt;p style=&quot;margin:0 0 0 4px;line-height:1.6;&quot;&gt;- uniqueId: String&lt;/p&gt;&lt;hr size=&quot;1&quot;/&gt;&lt;p style=&quot;margin:0 0 0 4px;line-height:1.6;&quot;&gt; uniqueId: String&lt;br/&gt; FId: Integer&lt;/p&gt;" style="verticalAlign=top;align=left;overflow=fill;fontSize=14;fontFamily=Helvetica;html=1;rounded=0;shadow=0;comic=0;labelBackgroundColor=none;strokeWidth=1;strokeColor=#E9F0EE;" vertex="1" parent="1">
                    <mxGeometry x="311" y="-158" width="143" height="188" as="geometry"/>
                </mxCell>
                <mxCell id="QX1KaoFxwTmWZFVywQO2-12" value="&lt;p style=&quot;margin:0px;margin-top:4px;text-align:center;&quot;&gt;&lt;b&gt;geoJsonController&lt;/b&gt;&lt;/p&gt;&lt;hr size=&quot;1&quot;/&gt;&lt;p style=&quot;margin:0 0 0 4px;line-height:1.6;&quot;&gt;+ geoJsonController(GeoJsonService): &lt;/p&gt;&lt;hr size=&quot;1&quot;/&gt;&lt;p style=&quot;margin:0 0 0 4px;line-height:1.6;&quot;&gt;+ postData(DataRequest): ResponseEntity&amp;lt;OtherShape&amp;gt;&lt;/p&gt;" style="verticalAlign=top;align=left;overflow=fill;fontSize=14;fontFamily=Helvetica;html=1;rounded=0;shadow=0;comic=0;labelBackgroundColor=none;strokeWidth=1;strokeColor=#E9F0EE;" vertex="1" parent="1">
                    <mxGeometry x="591" y="580" width="409" height="138" as="geometry"/>
                </mxCell>
                <mxCell id="QX1KaoFxwTmWZFVywQO2-13" value="" style="html=1;rounded=1;edgeStyle=orthogonalEdgeStyle;dashed=0;startArrow=diamondThinstartSize=12;endArrow=openThin;endSize=12;strokeColor=#E9F0EE;exitX=0.500;exitY=0.002;exitDx=0;exitDy=0;" edge="1" parent="1" source="QX1KaoFxwTmWZFVywQO2-1">
                    <mxGeometry width="50" height="50" relative="1" as="geometry">
                        <Array as="points">
                            <mxPoint x="154" y="560"/>
                        </Array>
                        <mxPoint x="-110" y="560" as="targetPoint"/>
                    </mxGeometry>
                </mxCell>
                <mxCell id="QX1KaoFxwTmWZFVywQO2-14" value="1" style="edgeLabel;resizable=0;html=1;align=left;verticalAlign=top;strokeColor=default;" vertex="1" connectable="0" parent="QX1KaoFxwTmWZFVywQO2-13">
                    <mxGeometry x="-50" y="527" as="geometry"/>
                </mxCell>
                <mxCell id="QX1KaoFxwTmWZFVywQO2-15" value="1" style="edgeLabel;resizable=0;html=1;align=left;verticalAlign=top;strokeColor=default;" vertex="1" connectable="0" parent="QX1KaoFxwTmWZFVywQO2-13">
                    <mxGeometry x="40" y="540" as="geometry"/>
                </mxCell>
                <mxCell id="QX1KaoFxwTmWZFVywQO2-16" value="polygon" style="edgeLabel;resizable=0;html=1;align=left;verticalAlign=top;strokeColor=default;" vertex="1" connectable="0" parent="QX1KaoFxwTmWZFVywQO2-13">
                    <mxGeometry x="-20" y="540" as="geometry"/>
                </mxCell>
                <mxCell id="QX1KaoFxwTmWZFVywQO2-17" value="" style="html=1;rounded=1;edgeStyle=orthogonalEdgeStyle;dashed=0;startArrow=diamondThinstartSize=12;endArrow=openThin;endSize=12;strokeColor=#E9F0EE;exitX=1.001;exitY=0.426;exitDx=0;exitDy=0;exitPerimeter=0;entryX=0.208;entryY=1.018;entryDx=0;entryDy=0;entryPerimeter=0;" edge="1" parent="1" source="QX1KaoFxwTmWZFVywQO2-1" target="QX1KaoFxwTmWZFVywQO2-9">
                    <mxGeometry width="50" height="50" relative="1" as="geometry">
                        <Array as="points">
                            <mxPoint x="250" y="710"/>
                            <mxPoint x="250" y="730"/>
                            <mxPoint x="260" y="730"/>
                            <mxPoint x="260" y="800"/>
                            <mxPoint x="340" y="800"/>
                            <mxPoint x="340" y="730"/>
                            <mxPoint x="342" y="730"/>
                        </Array>
                        <mxPoint x="350" y="730" as="targetPoint"/>
                    </mxGeometry>
                </mxCell>
                <mxCell id="QX1KaoFxwTmWZFVywQO2-18" value="1" style="edgeLabel;resizable=0;html=1;align=left;verticalAlign=top;strokeColor=default;" vertex="1" connectable="0" parent="QX1KaoFxwTmWZFVywQO2-17">
                    <mxGeometry x="230" y="690" as="geometry"/>
                </mxCell>
                <mxCell id="QX1KaoFxwTmWZFVywQO2-19" value="1" style="edgeLabel;resizable=0;html=1;align=left;verticalAlign=top;strokeColor=default;" vertex="1" connectable="0" parent="QX1KaoFxwTmWZFVywQO2-17">
                    <mxGeometry x="330" y="680" as="geometry"/>
                </mxCell>
                <mxCell id="QX1KaoFxwTmWZFVywQO2-20" value="otherShape" style="edgeLabel;resizable=0;html=1;align=left;verticalAlign=top;strokeColor=default;" vertex="1" connectable="0" parent="QX1KaoFxwTmWZFVywQO2-17">
                    <mxGeometry x="349" y="527" as="geometry"/>
                </mxCell>
                <mxCell id="QX1KaoFxwTmWZFVywQO2-21" value="" style="html=1;rounded=1;edgeStyle=orthogonalEdgeStyle;dashed=0;startArrow=diamondThinstartSize=12;endArrow=openThin;endSize=12;strokeColor=#E9F0EE;exitX=0.500;exitY=0.000;exitDx=0;exitDy=0;entryX=0.250;entryY=1.000;entryDx=0;entryDy=0;" edge="1" parent="1" source="QX1KaoFxwTmWZFVywQO2-2" target="QX1KaoFxwTmWZFVywQO2-6">
                    <mxGeometry width="50" height="50" relative="1" as="geometry">
                        <Array as="points">
                            <mxPoint x="337" y="173"/>
                            <mxPoint x="531" y="173"/>
                        </Array>
                    </mxGeometry>
                </mxCell>
                <mxCell id="QX1KaoFxwTmWZFVywQO2-22" value="1" style="edgeLabel;resizable=0;html=1;align=left;verticalAlign=top;strokeColor=default;" vertex="1" connectable="0" parent="QX1KaoFxwTmWZFVywQO2-21">
                    <mxGeometry x="326" y="163" as="geometry"/>
                </mxCell>
                <mxCell id="QX1KaoFxwTmWZFVywQO2-23" value="1" style="edgeLabel;resizable=0;html=1;align=left;verticalAlign=top;strokeColor=default;" vertex="1" connectable="0" parent="QX1KaoFxwTmWZFVywQO2-21">
                    <mxGeometry x="506" y="153" as="geometry"/>
                </mxCell>
                <mxCell id="QX1KaoFxwTmWZFVywQO2-24" value="geometry" style="edgeLabel;resizable=0;html=1;align=left;verticalAlign=top;strokeColor=default;" vertex="1" connectable="0" parent="QX1KaoFxwTmWZFVywQO2-21">
                    <mxGeometry x="531" y="148" as="geometry"/>
                </mxCell>
                <mxCell id="QX1KaoFxwTmWZFVywQO2-25" value="" style="html=1;rounded=1;edgeStyle=orthogonalEdgeStyle;dashed=0;startArrow=diamondThinstartSize=12;endArrow=openThin;endSize=12;strokeColor=#E9F0EE;exitX=0.500;exitY=0.000;exitDx=0;exitDy=0;entryX=0.24;entryY=0.99;entryDx=0;entryDy=0;entryPerimeter=0;" edge="1" parent="1" source="QX1KaoFxwTmWZFVywQO2-3" target="QX1KaoFxwTmWZFVywQO2-7">
                    <mxGeometry width="50" height="50" relative="1" as="geometry">
                        <Array as="points">
                            <mxPoint x="47" y="200"/>
                            <mxPoint x="-671" y="200"/>
                        </Array>
                        <mxPoint x="80" y="40" as="targetPoint"/>
                    </mxGeometry>
                </mxCell>
                <mxCell id="QX1KaoFxwTmWZFVywQO2-26" value="1" style="edgeLabel;resizable=0;html=1;align=left;verticalAlign=top;strokeColor=default;" vertex="1" connectable="0" parent="QX1KaoFxwTmWZFVywQO2-25">
                    <mxGeometry x="36" y="185" as="geometry"/>
                </mxCell>
                <mxCell id="QX1KaoFxwTmWZFVywQO2-27" value="1" style="edgeLabel;resizable=0;html=1;align=left;verticalAlign=top;strokeColor=default;" vertex="1" connectable="0" parent="QX1KaoFxwTmWZFVywQO2-25">
                    <mxGeometry x="57" y="153" as="geometry"/>
                </mxCell>
                <mxCell id="QX1KaoFxwTmWZFVywQO2-28" value="geometry" style="edgeLabel;resizable=0;html=1;align=left;verticalAlign=top;strokeColor=default;" vertex="1" connectable="0" parent="QX1KaoFxwTmWZFVywQO2-25">
                    <mxGeometry x="79" y="148" as="geometry"/>
                </mxCell>
                <mxCell id="QX1KaoFxwTmWZFVywQO2-29" value="" style="html=1;rounded=1;edgeStyle=orthogonalEdgeStyle;dashed=0;startArrow=circlePlus;startFill=0;endArrow=none;strokeColor=#E9F0EE;exitX=0.750;exitY=1.000;exitDx=0;exitDy=0;entryX=0.750;entryY=0.001;entryDx=0;entryDy=0;" edge="1" parent="1" source="QX1KaoFxwTmWZFVywQO2-3" target="QX1KaoFxwTmWZFVywQO2-8">
                    <mxGeometry width="50" height="50" relative="1" as="geometry">
                        <Array as="points">
                            <mxPoint x="92" y="463"/>
                            <mxPoint x="101" y="463"/>
                            <mxPoint x="101" y="473"/>
                            <mxPoint x="60" y="473"/>
                        </Array>
                    </mxGeometry>
                </mxCell>
                <mxCell id="QX1KaoFxwTmWZFVywQO2-30" value="" style="html=1;rounded=1;edgeStyle=orthogonalEdgeStyle;dashed=0;startArrow=circlePlus;startFill=0;endArrow=none;strokeColor=#E9F0EE;exitX=0.750;exitY=1.000;exitDx=0;exitDy=0;entryX=0.750;entryY=0.001;entryDx=0;entryDy=0;" edge="1" parent="1" source="QX1KaoFxwTmWZFVywQO2-2" target="QX1KaoFxwTmWZFVywQO2-9">
                    <mxGeometry width="50" height="50" relative="1" as="geometry">
                        <Array as="points">
                            <mxPoint x="383" y="463"/>
                            <mxPoint x="420" y="463"/>
                            <mxPoint x="420" y="473"/>
                            <mxPoint x="419" y="473"/>
                        </Array>
                    </mxGeometry>
                </mxCell>
                <mxCell id="QX1KaoFxwTmWZFVywQO2-31" value="" style="html=1;rounded=1;edgeStyle=orthogonalEdgeStyle;dashed=0;startArrow=diamondThinstartSize=12;endArrow=openThin;endSize=12;strokeColor=#E9F0EE;exitX=0.500;exitY=0.000;exitDx=0;exitDy=0;entryX=0.750;entryY=1.001;entryDx=0;entryDy=0;" edge="1" parent="1" source="QX1KaoFxwTmWZFVywQO2-3" target="QX1KaoFxwTmWZFVywQO2-10">
                    <mxGeometry width="50" height="50" relative="1" as="geometry">
                        <Array as="points">
                            <mxPoint x="47" y="173"/>
                            <mxPoint x="-46" y="173"/>
                        </Array>
                    </mxGeometry>
                </mxCell>
                <mxCell id="QX1KaoFxwTmWZFVywQO2-32" value="1" style="edgeLabel;resizable=0;html=1;align=left;verticalAlign=top;strokeColor=default;" vertex="1" connectable="0" parent="QX1KaoFxwTmWZFVywQO2-31">
                    <mxGeometry x="-4" y="185" as="geometry"/>
                </mxCell>
                <mxCell id="QX1KaoFxwTmWZFVywQO2-33" value="1" style="edgeLabel;resizable=0;html=1;align=left;verticalAlign=top;strokeColor=default;" vertex="1" connectable="0" parent="QX1KaoFxwTmWZFVywQO2-31">
                    <mxGeometry x="-180" y="-90" as="geometry"/>
                </mxCell>
                <mxCell id="QX1KaoFxwTmWZFVywQO2-34" value="properties" style="edgeLabel;resizable=0;html=1;align=left;verticalAlign=top;strokeColor=default;" vertex="1" connectable="0" parent="QX1KaoFxwTmWZFVywQO2-31">
                    <mxGeometry x="-170" y="-100" as="geometry"/>
                </mxCell>
                <mxCell id="QX1KaoFxwTmWZFVywQO2-35" value="" style="html=1;rounded=1;edgeStyle=orthogonalEdgeStyle;dashed=0;startArrow=diamondThinstartSize=12;endArrow=openThin;endSize=12;strokeColor=#E9F0EE;exitX=0.500;exitY=0.000;exitDx=0;exitDy=0;entryX=0.287;entryY=0.994;entryDx=0;entryDy=0;entryPerimeter=0;" edge="1" parent="1">
                    <mxGeometry width="50" height="50" relative="1" as="geometry">
                        <Array as="points">
                            <mxPoint x="340" y="185.13"/>
                            <mxPoint x="355" y="185.13"/>
                            <mxPoint x="355" y="82.13"/>
                            <mxPoint x="350" y="82.13"/>
                            <mxPoint x="350" y="41.13"/>
                            <mxPoint x="352" y="41.13"/>
                        </Array>
                        <mxPoint x="340" y="206.26" as="sourcePoint"/>
                        <mxPoint x="352.04100000000005" y="30.00200000000007" as="targetPoint"/>
                    </mxGeometry>
                </mxCell>
                <mxCell id="QX1KaoFxwTmWZFVywQO2-36" value="1" style="edgeLabel;resizable=0;html=1;align=left;verticalAlign=top;strokeColor=default;" vertex="1" connectable="0" parent="QX1KaoFxwTmWZFVywQO2-35">
                    <mxGeometry x="330" y="120" as="geometry"/>
                </mxCell>
                <mxCell id="QX1KaoFxwTmWZFVywQO2-37" value="1" style="edgeLabel;resizable=0;html=1;align=left;verticalAlign=top;strokeColor=default;" vertex="1" connectable="0" parent="QX1KaoFxwTmWZFVywQO2-35">
                    <mxGeometry x="330" y="30" as="geometry"/>
                </mxCell>
                <mxCell id="QX1KaoFxwTmWZFVywQO2-38" value="properties" style="edgeLabel;resizable=0;html=1;align=left;verticalAlign=top;strokeColor=default;" vertex="1" connectable="0" parent="QX1KaoFxwTmWZFVywQO2-35">
                    <mxGeometry x="341" y="110" as="geometry"/>
                </mxCell>
                <mxCell id="QX1KaoFxwTmWZFVywQO2-39" value="" style="html=1;rounded=1;edgeStyle=orthogonalEdgeStyle;dashed=1;startArrow=none;endArrow=block;endSize=12;strokeColor=#E9F0EE;" edge="1" parent="1" target="QX1KaoFxwTmWZFVywQO2-4">
                    <mxGeometry width="50" height="50" relative="1" as="geometry">
                        <Array as="points">
                            <mxPoint x="1080" y="770"/>
                            <mxPoint x="1080" y="410"/>
                        </Array>
                        <mxPoint x="1080" y="770" as="sourcePoint"/>
                        <mxPoint x="840" y="410" as="targetPoint"/>
                    </mxGeometry>
                </mxCell>
                <mxCell id="QX1KaoFxwTmWZFVywQO2-40" value="" style="html=1;rounded=1;edgeStyle=orthogonalEdgeStyle;dashed=1;startArrow=none;endArrow=openThin;endSize=12;strokeColor=#E9F0EE;exitX=0.049;exitY=-0.017;exitDx=0;exitDy=0;entryX=0.75;entryY=1;entryDx=0;entryDy=0;exitPerimeter=0;" edge="1" parent="1" source="QX1KaoFxwTmWZFVywQO2-5" target="QX1KaoFxwTmWZFVywQO2-9">
                    <mxGeometry width="50" height="50" relative="1" as="geometry">
                        <Array as="points">
                            <mxPoint x="420" y="767"/>
                            <mxPoint x="420" y="700"/>
                            <mxPoint x="419" y="700"/>
                        </Array>
                        <mxPoint x="510" y="700" as="targetPoint"/>
                    </mxGeometry>
                </mxCell>
                <mxCell id="QX1KaoFxwTmWZFVywQO2-41" value="«create»" style="edgeLabel;resizable=0;html=1;align=left;verticalAlign=top;strokeColor=default;" vertex="1" connectable="0" parent="QX1KaoFxwTmWZFVywQO2-40">
                    <mxGeometry x="363" y="550" as="geometry"/>
                </mxCell>
                <mxCell id="QX1KaoFxwTmWZFVywQO2-42" value="" style="html=1;rounded=1;edgeStyle=orthogonalEdgeStyle;dashed=0;startArrow=circlePlus;startFill=0;endArrow=none;strokeColor=#E9F0EE;exitX=0.750;exitY=1.000;exitDx=0;exitDy=0;entryX=0;entryY=0;entryDx=0;entryDy=0;" edge="1" parent="1" source="QX1KaoFxwTmWZFVywQO2-7" target="QX1KaoFxwTmWZFVywQO2-8">
                    <mxGeometry width="50" height="50" relative="1" as="geometry">
                        <Array as="points">
                            <mxPoint x="-365" y="126"/>
                            <mxPoint x="-365" y="506"/>
                        </Array>
                    </mxGeometry>
                </mxCell>
                <mxCell id="QX1KaoFxwTmWZFVywQO2-43" value="" style="html=1;rounded=1;edgeStyle=orthogonalEdgeStyle;dashed=0;startArrow=circlePlus;startFill=0;endArrow=none;strokeColor=#E9F0EE;exitX=0.750;exitY=1.000;exitDx=0;exitDy=0;entryX=0.750;entryY=0.001;entryDx=0;entryDy=0;" edge="1" parent="1" source="QX1KaoFxwTmWZFVywQO2-6" target="QX1KaoFxwTmWZFVywQO2-9">
                    <mxGeometry width="50" height="50" relative="1" as="geometry">
                        <Array as="points">
                            <mxPoint x="634" y="76"/>
                            <mxPoint x="634" y="173"/>
                            <mxPoint x="593" y="173"/>
                            <mxPoint x="593" y="480"/>
                            <mxPoint x="419" y="480"/>
                        </Array>
                    </mxGeometry>
                </mxCell>
                <mxCell id="QX1KaoFxwTmWZFVywQO2-44" value="" style="html=1;rounded=1;edgeStyle=orthogonalEdgeStyle;dashed=0;startArrow=diamondThinstartSize=12;endArrow=openThin;endSize=12;strokeColor=#E9F0EE;exitX=0.250;exitY=0.001;exitDx=0;exitDy=0;entryX=0.250;entryY=1.000;entryDx=0;entryDy=0;" edge="1" parent="1" source="QX1KaoFxwTmWZFVywQO2-8" target="QX1KaoFxwTmWZFVywQO2-3">
                    <mxGeometry width="50" height="50" relative="1" as="geometry">
                        <Array as="points">
                            <mxPoint x="-8" y="473"/>
                            <mxPoint x="1" y="473"/>
                        </Array>
                    </mxGeometry>
                </mxCell>
                <mxCell id="QX1KaoFxwTmWZFVywQO2-45" value="1" style="edgeLabel;resizable=0;html=1;align=left;verticalAlign=top;strokeColor=default;" vertex="1" connectable="0" parent="QX1KaoFxwTmWZFVywQO2-44">
                    <mxGeometry x="-19" y="474" as="geometry"/>
                </mxCell>
                <mxCell id="QX1KaoFxwTmWZFVywQO2-46" value="*" style="edgeLabel;resizable=0;html=1;align=left;verticalAlign=top;strokeColor=default;" vertex="1" connectable="0" parent="QX1KaoFxwTmWZFVywQO2-44">
                    <mxGeometry x="-8" y="424" as="geometry"/>
                </mxCell>
                <mxCell id="QX1KaoFxwTmWZFVywQO2-47" value="features" style="edgeLabel;resizable=0;html=1;align=left;verticalAlign=top;strokeColor=default;" vertex="1" connectable="0" parent="QX1KaoFxwTmWZFVywQO2-44">
                    <mxGeometry x="1" y="424" as="geometry"/>
                </mxCell>
                <mxCell id="QX1KaoFxwTmWZFVywQO2-48" value="" style="html=1;rounded=1;edgeStyle=orthogonalEdgeStyle;dashed=0;startArrow=diamondThinstartSize=12;endArrow=openThin;endSize=12;strokeColor=#E9F0EE;exitX=0.250;exitY=0.001;exitDx=0;exitDy=0;entryX=0.250;entryY=1.000;entryDx=0;entryDy=0;" edge="1" parent="1" source="QX1KaoFxwTmWZFVywQO2-9" target="QX1KaoFxwTmWZFVywQO2-2">
                    <mxGeometry width="50" height="50" relative="1" as="geometry">
                        <Array as="points">
                            <mxPoint x="349" y="473"/>
                            <mxPoint x="291" y="473"/>
                        </Array>
                    </mxGeometry>
                </mxCell>
                <mxCell id="QX1KaoFxwTmWZFVywQO2-49" value="1" style="edgeLabel;resizable=0;html=1;align=left;verticalAlign=top;strokeColor=default;" vertex="1" connectable="0" parent="QX1KaoFxwTmWZFVywQO2-48">
                    <mxGeometry x="298" y="469" as="geometry"/>
                </mxCell>
                <mxCell id="QX1KaoFxwTmWZFVywQO2-50" value="*" style="edgeLabel;resizable=0;html=1;align=left;verticalAlign=top;strokeColor=default;" vertex="1" connectable="0" parent="QX1KaoFxwTmWZFVywQO2-48">
                    <mxGeometry x="282" y="448" as="geometry"/>
                </mxCell>
                <mxCell id="QX1KaoFxwTmWZFVywQO2-51" value="features" style="edgeLabel;resizable=0;html=1;align=left;verticalAlign=top;strokeColor=default;" vertex="1" connectable="0" parent="QX1KaoFxwTmWZFVywQO2-48">
                    <mxGeometry x="291" y="448" as="geometry"/>
                </mxCell>
                <mxCell id="QX1KaoFxwTmWZFVywQO2-52" value="" style="html=1;rounded=1;edgeStyle=orthogonalEdgeStyle;dashed=0;startArrow=circlePlus;startFill=0;endArrow=none;strokeColor=#E9F0EE;entryX=0.750;entryY=0.001;entryDx=0;entryDy=0;" edge="1" parent="1" target="QX1KaoFxwTmWZFVywQO2-8">
                    <mxGeometry width="50" height="50" relative="1" as="geometry">
                        <Array as="points">
                            <mxPoint x="-111" y="-30"/>
                            <mxPoint x="-111" y="180"/>
                            <mxPoint x="-110" y="180"/>
                            <mxPoint x="-110" y="506"/>
                        </Array>
                        <mxPoint x="-220" y="-60" as="sourcePoint"/>
                    </mxGeometry>
                </mxCell>
                <mxCell id="QX1KaoFxwTmWZFVywQO2-53" value="" style="html=1;rounded=1;edgeStyle=orthogonalEdgeStyle;dashed=0;startArrow=circlePlus;startFill=0;endArrow=none;strokeColor=#E9F0EE;exitX=0.750;exitY=1.000;exitDx=0;exitDy=0;entryX=0.750;entryY=0.001;entryDx=0;entryDy=0;" edge="1" parent="1" source="QX1KaoFxwTmWZFVywQO2-11" target="QX1KaoFxwTmWZFVywQO2-9">
                    <mxGeometry width="50" height="50" relative="1" as="geometry">
                        <Array as="points">
                            <mxPoint x="423" y="30"/>
                            <mxPoint x="423" y="163"/>
                            <mxPoint x="482" y="163"/>
                            <mxPoint x="482" y="440"/>
                            <mxPoint x="477" y="440"/>
                            <mxPoint x="477" y="473"/>
                            <mxPoint x="419" y="473"/>
                        </Array>
                    </mxGeometry>
                </mxCell>
                <mxCell id="QX1KaoFxwTmWZFVywQO2-54" value="" style="html=1;rounded=1;edgeStyle=orthogonalEdgeStyle;dashed=0;startArrow=diamondThinstartSize=12;endArrow=openThin;endSize=12;strokeColor=#E9F0EE;exitX=0.500;exitY=0.002;exitDx=0;exitDy=0;entryX=0.750;entryY=1.002;entryDx=0;entryDy=0;" edge="1" parent="1" source="QX1KaoFxwTmWZFVywQO2-12" target="QX1KaoFxwTmWZFVywQO2-4">
                    <mxGeometry width="50" height="50" relative="1" as="geometry">
                        <Array as="points">
                            <mxPoint x="796" y="547"/>
                            <mxPoint x="751" y="547"/>
                        </Array>
                    </mxGeometry>
                </mxCell>
                <mxCell id="QX1KaoFxwTmWZFVywQO2-55" value="1" style="edgeLabel;resizable=0;html=1;align=left;verticalAlign=top;strokeColor=default;" vertex="1" connectable="0" parent="QX1KaoFxwTmWZFVywQO2-54">
                    <mxGeometry x="720" y="540" as="geometry"/>
                </mxCell>
                <mxCell id="QX1KaoFxwTmWZFVywQO2-56" value="1" style="edgeLabel;resizable=0;html=1;align=left;verticalAlign=top;strokeColor=default;" vertex="1" connectable="0" parent="QX1KaoFxwTmWZFVywQO2-54">
                    <mxGeometry x="720" y="510" as="geometry"/>
                </mxCell>
                <mxCell id="QX1KaoFxwTmWZFVywQO2-57" value="geoJsonService" style="edgeLabel;resizable=0;html=1;align=left;verticalAlign=top;strokeColor=default;" vertex="1" connectable="0" parent="QX1KaoFxwTmWZFVywQO2-54">
                    <mxGeometry x="650" y="520" as="geometry">
                        <mxPoint x="71" y="2" as="offset"/>
                    </mxGeometry>
                </mxCell>
                <mxCell id="QX1KaoFxwTmWZFVywQO2-62" value="Web Service UML Diagram" style="swimlane;strokeWidth=0;strokeColor=#E9F0EE;" vertex="1" parent="1">
                    <mxGeometry x="-748" y="-270" width="2170" height="1260" as="geometry"/>
                </mxCell>
            </root>
        </mxGraphModel>
    </diagram>
    <diagram id="wkBLACXOo5ChRk96QqCL" name="ui component design">
        <mxGraphModel dx="1272" dy="1344" grid="1" gridSize="100" guides="1" tooltips="1" connect="1" arrows="1" fold="1" page="0" pageScale="1" pageWidth="850" pageHeight="1100" math="0" shadow="0">
            <root>
                <mxCell id="0"/>
                <mxCell id="1" parent="0"/>
                <mxCell id="zMVzUuxHr3aF4NGPolj9-1" style="edgeStyle=orthogonalEdgeStyle;rounded=0;orthogonalLoop=1;jettySize=auto;html=1;dashed=1;dashPattern=12 12;entryX=0;entryY=0.5;entryDx=0;entryDy=0;" edge="1" parent="1" source="zMVzUuxHr3aF4NGPolj9-2" target="zMVzUuxHr3aF4NGPolj9-3">
                    <mxGeometry relative="1" as="geometry">
                        <mxPoint x="380" y="90" as="targetPoint"/>
                        <Array as="points">
                            <mxPoint x="205" y="200"/>
                            <mxPoint x="210" y="200"/>
                            <mxPoint x="210" y="85"/>
                        </Array>
                    </mxGeometry>
                </mxCell>
                <mxCell id="zMVzUuxHr3aF4NGPolj9-2" value="«Container»&lt;br&gt;&lt;b&gt;App&lt;/b&gt;" style="html=1;whiteSpace=wrap;" vertex="1" parent="1">
                    <mxGeometry x="150" y="220" width="110" height="50" as="geometry"/>
                </mxCell>
                <mxCell id="zMVzUuxHr3aF4NGPolj9-3" value="«Container»&lt;br&gt;&lt;b&gt;ConatinerMap&lt;/b&gt;" style="html=1;whiteSpace=wrap;" vertex="1" parent="1">
                    <mxGeometry x="420" y="60" width="110" height="50" as="geometry"/>
                </mxCell>
                <mxCell id="zMVzUuxHr3aF4NGPolj9-4" value="" style="endArrow=none;html=1;edgeStyle=orthogonalEdgeStyle;rounded=0;" edge="1" parent="1">
                    <mxGeometry relative="1" as="geometry">
                        <mxPoint x="530" y="84.5" as="sourcePoint"/>
                        <mxPoint x="690" y="84.5" as="targetPoint"/>
                    </mxGeometry>
                </mxCell>
                <mxCell id="zMVzUuxHr3aF4NGPolj9-5" value="parent" style="edgeLabel;resizable=0;html=1;align=left;verticalAlign=bottom;" connectable="0" vertex="1" parent="zMVzUuxHr3aF4NGPolj9-4">
                    <mxGeometry x="-1" relative="1" as="geometry"/>
                </mxCell>
                <mxCell id="zMVzUuxHr3aF4NGPolj9-6" value="child" style="edgeLabel;resizable=0;html=1;align=right;verticalAlign=bottom;" connectable="0" vertex="1" parent="zMVzUuxHr3aF4NGPolj9-4">
                    <mxGeometry x="1" relative="1" as="geometry"/>
                </mxCell>
                <mxCell id="zMVzUuxHr3aF4NGPolj9-7" style="edgeStyle=orthogonalEdgeStyle;rounded=0;orthogonalLoop=1;jettySize=auto;html=1;dashed=1;dashPattern=8 8;entryX=0;entryY=0.5;entryDx=0;entryDy=0;" edge="1" parent="1" source="zMVzUuxHr3aF4NGPolj9-8" target="zMVzUuxHr3aF4NGPolj9-11">
                    <mxGeometry relative="1" as="geometry">
                        <mxPoint x="920" y="85" as="targetPoint"/>
                    </mxGeometry>
                </mxCell>
                <mxCell id="zMVzUuxHr3aF4NGPolj9-8" value="«Container»&lt;br&gt;&lt;b&gt;MapTools&lt;/b&gt;" style="html=1;whiteSpace=wrap;" vertex="1" parent="1">
                    <mxGeometry x="690" y="60" width="100" height="50" as="geometry"/>
                </mxCell>
                <mxCell id="zMVzUuxHr3aF4NGPolj9-9" style="edgeStyle=orthogonalEdgeStyle;rounded=0;orthogonalLoop=1;jettySize=auto;html=1;dashed=1;dashPattern=12 12;exitX=0.5;exitY=1;exitDx=0;exitDy=0;" edge="1" parent="1" source="zMVzUuxHr3aF4NGPolj9-2">
                    <mxGeometry relative="1" as="geometry">
                        <mxPoint x="410" y="360" as="targetPoint"/>
                        <mxPoint x="215" y="230" as="sourcePoint"/>
                        <Array as="points">
                            <mxPoint x="220" y="270"/>
                            <mxPoint x="220" y="360"/>
                        </Array>
                    </mxGeometry>
                </mxCell>
                <mxCell id="zMVzUuxHr3aF4NGPolj9-10" value="«Container»&lt;br&gt;&lt;b&gt;ToolBar&lt;/b&gt;" style="html=1;whiteSpace=wrap;" vertex="1" parent="1">
                    <mxGeometry x="410" y="330" width="110" height="50" as="geometry"/>
                </mxCell>
                <mxCell id="zMVzUuxHr3aF4NGPolj9-11" value="«Container»&lt;br&gt;&lt;b&gt;GeoSearch&lt;/b&gt;" style="html=1;whiteSpace=wrap;" vertex="1" parent="1">
                    <mxGeometry x="730" y="-170" width="110" height="50" as="geometry"/>
                </mxCell>
                <mxCell id="zMVzUuxHr3aF4NGPolj9-12" value="«Container»&lt;br&gt;&lt;b&gt;Measurment&lt;/b&gt;" style="html=1;whiteSpace=wrap;" vertex="1" parent="1">
                    <mxGeometry x="770" y="-90" width="110" height="50" as="geometry"/>
                </mxCell>
                <mxCell id="zMVzUuxHr3aF4NGPolj9-13" value="«Container»&lt;br&gt;&lt;b&gt;GeoTiffLayer&lt;/b&gt;" style="html=1;whiteSpace=wrap;" vertex="1" parent="1">
                    <mxGeometry x="580" y="-180" width="110" height="50" as="geometry"/>
                </mxCell>
                <mxCell id="zMVzUuxHr3aF4NGPolj9-14" style="edgeStyle=orthogonalEdgeStyle;rounded=0;orthogonalLoop=1;jettySize=auto;html=1;dashed=1;dashPattern=12 12;entryX=0;entryY=0.5;entryDx=0;entryDy=0;exitX=0.5;exitY=1;exitDx=0;exitDy=0;" edge="1" parent="1" source="zMVzUuxHr3aF4NGPolj9-8" target="zMVzUuxHr3aF4NGPolj9-12">
                    <mxGeometry relative="1" as="geometry">
                        <mxPoint x="905" y="177.5" as="targetPoint"/>
                        <mxPoint x="690" y="312.5" as="sourcePoint"/>
                        <Array as="points">
                            <mxPoint x="690" y="110"/>
                            <mxPoint x="690" y="170"/>
                            <mxPoint x="860" y="170"/>
                            <mxPoint x="860" y="178"/>
                            <mxPoint x="920" y="178"/>
                        </Array>
                    </mxGeometry>
                </mxCell>
                <mxCell id="zMVzUuxHr3aF4NGPolj9-15" style="edgeStyle=orthogonalEdgeStyle;rounded=0;orthogonalLoop=1;jettySize=auto;html=1;dashed=1;dashPattern=12 12;exitX=0.5;exitY=1;exitDx=0;exitDy=0;" edge="1" parent="1" source="zMVzUuxHr3aF4NGPolj9-8">
                    <mxGeometry relative="1" as="geometry">
                        <mxPoint x="1020" y="180" as="targetPoint"/>
                        <mxPoint x="750" y="120" as="sourcePoint"/>
                        <Array as="points">
                            <mxPoint x="740" y="210"/>
                            <mxPoint x="1010" y="210"/>
                        </Array>
                    </mxGeometry>
                </mxCell>
                <mxCell id="zMVzUuxHr3aF4NGPolj9-16" style="edgeStyle=orthogonalEdgeStyle;rounded=0;orthogonalLoop=1;jettySize=auto;html=1;dashed=1;dashPattern=12 12;exitX=0.5;exitY=1;exitDx=0;exitDy=0;" edge="1" parent="1" target="zMVzUuxHr3aF4NGPolj9-13">
                    <mxGeometry relative="1" as="geometry">
                        <mxPoint x="890" y="307.5" as="targetPoint"/>
                        <mxPoint x="720" y="120" as="sourcePoint"/>
                        <Array as="points">
                            <mxPoint x="720" y="310"/>
                            <mxPoint x="900" y="310"/>
                            <mxPoint x="900" y="308"/>
                        </Array>
                    </mxGeometry>
                </mxCell>
                <mxCell id="zMVzUuxHr3aF4NGPolj9-17" value="«Container»&lt;br style=&quot;border-color: var(--border-color);&quot;&gt;&lt;b style=&quot;border-color: var(--border-color);&quot;&gt;AddLayerGeoJson&lt;/b&gt;" style="swimlane;fontStyle=0;childLayout=stackLayout;horizontal=1;startSize=26;fillColor=none;horizontalStack=0;resizeParent=1;resizeParentMax=0;resizeLast=0;collapsible=1;marginBottom=0;whiteSpace=wrap;html=1;" vertex="1" parent="1">
                    <mxGeometry x="980" y="-110" width="140" height="90" as="geometry"/>
                </mxCell>
                <mxCell id="zMVzUuxHr3aF4NGPolj9-18" value="+ key: number" style="text;strokeColor=none;fillColor=none;align=left;verticalAlign=top;spacingLeft=4;spacingRight=4;overflow=hidden;rotatable=0;points=[[0,0.5],[1,0.5]];portConstraint=eastwest;whiteSpace=wrap;html=1;" vertex="1" parent="zMVzUuxHr3aF4NGPolj9-17">
                    <mxGeometry y="26" width="140" height="26" as="geometry"/>
                </mxCell>
                <mxCell id="zMVzUuxHr3aF4NGPolj9-19" value="+ data: object&lt;br&gt;" style="text;strokeColor=none;fillColor=none;align=left;verticalAlign=top;spacingLeft=4;spacingRight=4;overflow=hidden;rotatable=0;points=[[0,0.5],[1,0.5]];portConstraint=eastwest;whiteSpace=wrap;html=1;" vertex="1" parent="zMVzUuxHr3aF4NGPolj9-17">
                    <mxGeometry y="52" width="140" height="38" as="geometry"/>
                </mxCell>
                <mxCell id="zMVzUuxHr3aF4NGPolj9-20" value="«Container»&lt;br&gt;&lt;b&gt;LayerItems&lt;/b&gt;" style="html=1;whiteSpace=wrap;" vertex="1" parent="1">
                    <mxGeometry x="980" y="120" width="100" height="50" as="geometry"/>
                </mxCell>
                <mxCell id="zMVzUuxHr3aF4NGPolj9-21" value="" style="endArrow=none;html=1;edgeStyle=orthogonalEdgeStyle;rounded=0;exitX=0.5;exitY=0;exitDx=0;exitDy=0;entryX=0.532;entryY=1.037;entryDx=0;entryDy=0;entryPerimeter=0;" edge="1" parent="1" source="zMVzUuxHr3aF4NGPolj9-20" target="zMVzUuxHr3aF4NGPolj9-19">
                    <mxGeometry relative="1" as="geometry">
                        <mxPoint x="990" y="94.5" as="sourcePoint"/>
                        <mxPoint x="1028" y="20" as="targetPoint"/>
                        <Array as="points">
                            <mxPoint x="1030" y="53"/>
                            <mxPoint x="1034" y="53"/>
                        </Array>
                    </mxGeometry>
                </mxCell>
                <mxCell id="zMVzUuxHr3aF4NGPolj9-22" value="parent" style="edgeLabel;resizable=0;html=1;align=left;verticalAlign=bottom;" connectable="0" vertex="1" parent="zMVzUuxHr3aF4NGPolj9-21">
                    <mxGeometry x="-1" relative="1" as="geometry"/>
                </mxCell>
                <mxCell id="zMVzUuxHr3aF4NGPolj9-23" value="child" style="edgeLabel;resizable=0;html=1;align=right;verticalAlign=bottom;" connectable="0" vertex="1" parent="zMVzUuxHr3aF4NGPolj9-21">
                    <mxGeometry x="1" relative="1" as="geometry"/>
                </mxCell>
                <mxCell id="zMVzUuxHr3aF4NGPolj9-24" value="«Container»&lt;br&gt;&lt;b&gt;GeoJson&lt;/b&gt;" style="html=1;whiteSpace=wrap;" vertex="1" parent="1">
                    <mxGeometry x="1320" y="-180" width="100" height="50" as="geometry"/>
                </mxCell>
                <mxCell id="zMVzUuxHr3aF4NGPolj9-25" style="edgeStyle=orthogonalEdgeStyle;rounded=0;orthogonalLoop=1;jettySize=auto;html=1;" edge="1" parent="1" source="zMVzUuxHr3aF4NGPolj9-19" target="zMVzUuxHr3aF4NGPolj9-24">
                    <mxGeometry relative="1" as="geometry"/>
                </mxCell>
                <mxCell id="zMVzUuxHr3aF4NGPolj9-26" value="Artifact" style="text;html=1;align=center;verticalAlign=middle;resizable=0;points=[];autosize=1;strokeColor=none;fillColor=none;fontStyle=1" vertex="1" parent="1">
                    <mxGeometry x="1365" y="-120" width="70" height="30" as="geometry"/>
                </mxCell>
                <mxCell id="zMVzUuxHr3aF4NGPolj9-27" style="edgeStyle=orthogonalEdgeStyle;rounded=0;orthogonalLoop=1;jettySize=auto;html=1;dashed=1;dashPattern=12 12;exitX=0.5;exitY=1;exitDx=0;exitDy=0;entryX=0;entryY=0.5;entryDx=0;entryDy=0;" edge="1" parent="1" target="zMVzUuxHr3aF4NGPolj9-28">
                    <mxGeometry relative="1" as="geometry">
                        <mxPoint x="655" y="470" as="targetPoint"/>
                        <mxPoint x="450" y="380" as="sourcePoint"/>
                        <Array as="points">
                            <mxPoint x="465" y="380"/>
                            <mxPoint x="465" y="470"/>
                            <mxPoint x="670" y="470"/>
                        </Array>
                    </mxGeometry>
                </mxCell>
                <mxCell id="zMVzUuxHr3aF4NGPolj9-28" value="«Container»&lt;br&gt;&lt;b&gt;DataEntry&lt;/b&gt;" style="html=1;whiteSpace=wrap;" vertex="1" parent="1">
                    <mxGeometry x="710" y="440" width="110" height="50" as="geometry"/>
                </mxCell>
                <mxCell id="zMVzUuxHr3aF4NGPolj9-29" style="edgeStyle=orthogonalEdgeStyle;rounded=0;orthogonalLoop=1;jettySize=auto;html=1;dashed=1;dashPattern=12 12;exitX=0.5;exitY=1;exitDx=0;exitDy=0;" edge="1" parent="1">
                    <mxGeometry relative="1" as="geometry">
                        <mxPoint x="910" y="380" as="targetPoint"/>
                        <mxPoint x="520" y="350" as="sourcePoint"/>
                        <Array as="points">
                            <mxPoint x="535" y="350"/>
                            <mxPoint x="535" y="380"/>
                        </Array>
                    </mxGeometry>
                </mxCell>
                <mxCell id="zMVzUuxHr3aF4NGPolj9-30" value="«Container»&lt;br&gt;&lt;b&gt;LocationAnalysis&lt;/b&gt;" style="html=1;whiteSpace=wrap;" vertex="1" parent="1">
                    <mxGeometry x="910" y="350" width="110" height="50" as="geometry"/>
                </mxCell>
                <mxCell id="zMVzUuxHr3aF4NGPolj9-31" style="edgeStyle=orthogonalEdgeStyle;rounded=0;orthogonalLoop=1;jettySize=auto;html=1;dashed=1;dashPattern=12 12;entryX=0;entryY=0.5;entryDx=0;entryDy=0;" edge="1" parent="1" target="zMVzUuxHr3aF4NGPolj9-32">
                    <mxGeometry relative="1" as="geometry">
                        <mxPoint x="675" y="600" as="targetPoint"/>
                        <mxPoint x="460" y="380" as="sourcePoint"/>
                        <Array as="points">
                            <mxPoint x="485" y="510"/>
                            <mxPoint x="485" y="600"/>
                            <mxPoint x="690" y="600"/>
                        </Array>
                    </mxGeometry>
                </mxCell>
                <mxCell id="zMVzUuxHr3aF4NGPolj9-32" value="«Container»&lt;br&gt;&lt;b&gt;AttributeTable&lt;/b&gt;" style="html=1;whiteSpace=wrap;" vertex="1" parent="1">
                    <mxGeometry x="700" y="600" width="110" height="50" as="geometry"/>
                </mxCell>
                <mxCell id="zMVzUuxHr3aF4NGPolj9-33" value="«Component»&lt;br style=&quot;border-color: var(--border-color);&quot;&gt;&lt;b&gt;UI&lt;/b&gt;" style="whiteSpace=wrap;html=1;" vertex="1" parent="1">
                    <mxGeometry x="1060" y="510" width="120" height="60" as="geometry"/>
                </mxCell>
                <mxCell id="zMVzUuxHr3aF4NGPolj9-34" style="edgeStyle=orthogonalEdgeStyle;rounded=0;orthogonalLoop=1;jettySize=auto;html=1;dashed=1;dashPattern=12 12;exitX=0.5;exitY=1;exitDx=0;exitDy=0;" edge="1" parent="1">
                    <mxGeometry relative="1" as="geometry">
                        <mxPoint x="1060" y="550" as="targetPoint"/>
                        <mxPoint x="835" y="460" as="sourcePoint"/>
                        <Array as="points">
                            <mxPoint x="850" y="460"/>
                            <mxPoint x="850" y="550"/>
                            <mxPoint x="1055" y="550"/>
                        </Array>
                    </mxGeometry>
                </mxCell>
                <mxCell id="zMVzUuxHr3aF4NGPolj9-35" style="edgeStyle=orthogonalEdgeStyle;rounded=0;orthogonalLoop=1;jettySize=auto;html=1;dashed=1;dashPattern=12 12;exitX=0.5;exitY=1;exitDx=0;exitDy=0;entryX=0.375;entryY=1.03;entryDx=0;entryDy=0;entryPerimeter=0;" edge="1" parent="1" target="zMVzUuxHr3aF4NGPolj9-33">
                    <mxGeometry relative="1" as="geometry">
                        <mxPoint x="1035" y="710" as="targetPoint"/>
                        <mxPoint x="810" y="620" as="sourcePoint"/>
                        <Array as="points">
                            <mxPoint x="825" y="620"/>
                            <mxPoint x="825" y="710"/>
                            <mxPoint x="1030" y="710"/>
                            <mxPoint x="1030" y="572"/>
                        </Array>
                    </mxGeometry>
                </mxCell>
                <mxCell id="zMVzUuxHr3aF4NGPolj9-36" style="edgeStyle=orthogonalEdgeStyle;rounded=0;orthogonalLoop=1;jettySize=auto;html=1;dashed=1;dashPattern=12 12;exitX=0.5;exitY=1;exitDx=0;exitDy=0;entryX=0.5;entryY=1;entryDx=0;entryDy=0;" edge="1" parent="1" target="zMVzUuxHr3aF4NGPolj9-30">
                    <mxGeometry relative="1" as="geometry">
                        <mxPoint x="1115" y="582" as="targetPoint"/>
                        <mxPoint x="820" y="630" as="sourcePoint"/>
                        <Array as="points">
                            <mxPoint x="835" y="630"/>
                            <mxPoint x="835" y="450"/>
                            <mxPoint x="1040" y="450"/>
                            <mxPoint x="1040" y="582"/>
                            <mxPoint x="965" y="582"/>
                        </Array>
                    </mxGeometry>
                </mxCell>
            </root>
        </mxGraphModel>
    </diagram>
    <diagram id="wO_2EA7jER-3TR-sYstZ" name="Artifact">
        <mxGraphModel dx="2365" dy="1058" grid="1" gridSize="100" guides="1" tooltips="1" connect="1" arrows="1" fold="1" page="0" pageScale="1" pageWidth="850" pageHeight="1100" math="0" shadow="0">
            <root>
                <mxCell id="0"/>
                <mxCell id="1" parent="0"/>
                <mxCell id="iFDQEzmeLvX-7vIE6FT4-2" value="Geliştirilecek Olan&amp;nbsp;" style="swimlane;whiteSpace=wrap;html=1;" vertex="1" parent="1">
                    <mxGeometry x="-380" y="550" width="750" height="400" as="geometry"/>
                </mxCell>
                <mxCell id="iFDQEzmeLvX-7vIE6FT4-3" value="ygdmap-web" style="rounded=0;whiteSpace=wrap;html=1;" vertex="1" parent="iFDQEzmeLvX-7vIE6FT4-2">
                    <mxGeometry x="450" y="140" width="120" height="40" as="geometry"/>
                </mxCell>
                <mxCell id="iFDQEzmeLvX-7vIE6FT4-4" value="Attribute Table" style="whiteSpace=wrap;html=1;" vertex="1" parent="iFDQEzmeLvX-7vIE6FT4-2">
                    <mxGeometry x="40" y="150" width="120" height="60" as="geometry"/>
                </mxCell>
                <mxCell id="iFDQEzmeLvX-7vIE6FT4-5" style="edgeStyle=orthogonalEdgeStyle;rounded=0;orthogonalLoop=1;jettySize=auto;html=1;entryX=0.5;entryY=1;entryDx=0;entryDy=0;strokeColor=none;" edge="1" parent="iFDQEzmeLvX-7vIE6FT4-2" source="iFDQEzmeLvX-7vIE6FT4-6" target="iFDQEzmeLvX-7vIE6FT4-3">
                    <mxGeometry relative="1" as="geometry"/>
                </mxCell>
                <mxCell id="iFDQEzmeLvX-7vIE6FT4-6" value="Wms Loader" style="whiteSpace=wrap;html=1;" vertex="1" parent="iFDQEzmeLvX-7vIE6FT4-2">
                    <mxGeometry x="450" y="320" width="120" height="60" as="geometry"/>
                </mxCell>
                <mxCell id="iFDQEzmeLvX-7vIE6FT4-7" value="Raster Loader" style="whiteSpace=wrap;html=1;" vertex="1" parent="iFDQEzmeLvX-7vIE6FT4-2">
                    <mxGeometry x="450" y="40" width="120" height="60" as="geometry"/>
                </mxCell>
                <mxCell id="iFDQEzmeLvX-7vIE6FT4-8" value="Konumsal Sorgu Aracı" style="whiteSpace=wrap;html=1;" vertex="1" parent="iFDQEzmeLvX-7vIE6FT4-2">
                    <mxGeometry x="40" y="60" width="120" height="60" as="geometry"/>
                </mxCell>
                <mxCell id="iFDQEzmeLvX-7vIE6FT4-9" value="Shaple file loadler" style="whiteSpace=wrap;html=1;" vertex="1" parent="iFDQEzmeLvX-7vIE6FT4-2">
                    <mxGeometry x="40" y="230" width="120" height="60" as="geometry"/>
                </mxCell>
                <mxCell id="iFDQEzmeLvX-7vIE6FT4-10" value="" style="endArrow=none;dashed=1;html=1;dashPattern=1 3;strokeWidth=2;rounded=0;entryX=0;entryY=0.5;entryDx=0;entryDy=0;" edge="1" parent="iFDQEzmeLvX-7vIE6FT4-2" source="iFDQEzmeLvX-7vIE6FT4-8" target="iFDQEzmeLvX-7vIE6FT4-3">
                    <mxGeometry width="50" height="50" relative="1" as="geometry">
                        <mxPoint x="540" y="-410" as="sourcePoint"/>
                        <mxPoint x="230.71067811865476" y="90" as="targetPoint"/>
                    </mxGeometry>
                </mxCell>
                <mxCell id="iFDQEzmeLvX-7vIE6FT4-11" value="" style="endArrow=none;dashed=1;html=1;dashPattern=1 3;strokeWidth=2;rounded=0;exitX=0.594;exitY=-0.045;exitDx=0;exitDy=0;exitPerimeter=0;" edge="1" parent="iFDQEzmeLvX-7vIE6FT4-2" source="iFDQEzmeLvX-7vIE6FT4-6">
                    <mxGeometry width="50" height="50" relative="1" as="geometry">
                        <mxPoint x="400" y="280" as="sourcePoint"/>
                        <mxPoint x="520" y="180" as="targetPoint"/>
                    </mxGeometry>
                </mxCell>
                <mxCell id="iFDQEzmeLvX-7vIE6FT4-12" value="Geojson Loader" style="whiteSpace=wrap;html=1;" vertex="1" parent="iFDQEzmeLvX-7vIE6FT4-2">
                    <mxGeometry x="260" y="40" width="120" height="40" as="geometry"/>
                </mxCell>
                <mxCell id="iFDQEzmeLvX-7vIE6FT4-13" value="" style="endArrow=none;dashed=1;html=1;dashPattern=1 3;strokeWidth=2;rounded=0;exitX=0.5;exitY=1;exitDx=0;exitDy=0;" edge="1" parent="iFDQEzmeLvX-7vIE6FT4-2" source="iFDQEzmeLvX-7vIE6FT4-7" target="iFDQEzmeLvX-7vIE6FT4-3">
                    <mxGeometry width="50" height="50" relative="1" as="geometry">
                        <mxPoint x="390" y="70" as="sourcePoint"/>
                        <mxPoint x="470" y="180" as="targetPoint"/>
                    </mxGeometry>
                </mxCell>
                <mxCell id="iFDQEzmeLvX-7vIE6FT4-14" value="Hazır Kullanılan" style="swimlane;whiteSpace=wrap;html=1;" vertex="1" parent="1">
                    <mxGeometry x="500" y="560" width="200" height="390" as="geometry"/>
                </mxCell>
                <mxCell id="iFDQEzmeLvX-7vIE6FT4-15" value="harita Kütüphanesi ( Leaflet)&amp;nbsp;" style="whiteSpace=wrap;html=1;" vertex="1" parent="iFDQEzmeLvX-7vIE6FT4-14">
                    <mxGeometry x="25" y="40" width="120" height="60" as="geometry"/>
                </mxCell>
                <mxCell id="iFDQEzmeLvX-7vIE6FT4-16" value="Maven:JTS-Core" style="whiteSpace=wrap;html=1;" vertex="1" parent="iFDQEzmeLvX-7vIE6FT4-14">
                    <mxGeometry x="25" y="130" width="120" height="60" as="geometry"/>
                </mxCell>
                <mxCell id="iFDQEzmeLvX-7vIE6FT4-17" value="georaster" style="whiteSpace=wrap;html=1;" vertex="1" parent="iFDQEzmeLvX-7vIE6FT4-14">
                    <mxGeometry x="25" y="210" width="120" height="60" as="geometry"/>
                </mxCell>
                <mxCell id="iFDQEzmeLvX-7vIE6FT4-18" value="shp ( npm package)" style="whiteSpace=wrap;html=1;" vertex="1" parent="iFDQEzmeLvX-7vIE6FT4-14">
                    <mxGeometry x="25" y="290" width="120" height="60" as="geometry"/>
                </mxCell>
                <mxCell id="iFDQEzmeLvX-7vIE6FT4-19" value="" style="endArrow=none;dashed=1;html=1;dashPattern=1 3;strokeWidth=2;rounded=0;entryX=0;entryY=0.5;entryDx=0;entryDy=0;exitX=1;exitY=0.5;exitDx=0;exitDy=0;" edge="1" parent="1" source="iFDQEzmeLvX-7vIE6FT4-4">
                    <mxGeometry width="50" height="50" relative="1" as="geometry">
                        <mxPoint x="-210" y="662" as="sourcePoint"/>
                        <mxPoint x="80" y="720" as="targetPoint"/>
                    </mxGeometry>
                </mxCell>
                <mxCell id="iFDQEzmeLvX-7vIE6FT4-20" value="" style="endArrow=none;dashed=1;html=1;dashPattern=1 3;strokeWidth=2;rounded=0;entryX=0;entryY=0.5;entryDx=0;entryDy=0;exitX=1;exitY=0.5;exitDx=0;exitDy=0;" edge="1" parent="1" source="iFDQEzmeLvX-7vIE6FT4-9">
                    <mxGeometry width="50" height="50" relative="1" as="geometry">
                        <mxPoint x="-210" y="740" as="sourcePoint"/>
                        <mxPoint x="90" y="730" as="targetPoint"/>
                    </mxGeometry>
                </mxCell>
                <mxCell id="iFDQEzmeLvX-7vIE6FT4-21" value="" style="endArrow=none;dashed=1;html=1;dashPattern=1 3;strokeWidth=2;rounded=0;exitX=1;exitY=0.5;exitDx=0;exitDy=0;" edge="1" parent="1" source="iFDQEzmeLvX-7vIE6FT4-12">
                    <mxGeometry width="50" height="50" relative="1" as="geometry">
                        <mxPoint x="-50" y="630" as="sourcePoint"/>
                        <mxPoint x="70" y="700" as="targetPoint"/>
                    </mxGeometry>
                </mxCell>
                <mxCell id="iFDQEzmeLvX-7vIE6FT4-22" style="edgeStyle=orthogonalEdgeStyle;rounded=0;orthogonalLoop=1;jettySize=auto;html=1;strokeColor=default;endArrow=none;endFill=0;dashed=1;dashPattern=8 8;entryX=0;entryY=0.5;entryDx=0;entryDy=0;" edge="1" parent="1" target="iFDQEzmeLvX-7vIE6FT4-15">
                    <mxGeometry relative="1" as="geometry">
                        <mxPoint x="200" y="720" as="sourcePoint"/>
                        <mxPoint x="508" y="610" as="targetPoint"/>
                    </mxGeometry>
                </mxCell>
                <mxCell id="iFDQEzmeLvX-7vIE6FT4-23" style="edgeStyle=orthogonalEdgeStyle;rounded=0;orthogonalLoop=1;jettySize=auto;html=1;strokeColor=default;endArrow=none;endFill=0;dashed=1;dashPattern=8 8;" edge="1" parent="1">
                    <mxGeometry relative="1" as="geometry">
                        <mxPoint x="210" y="730" as="sourcePoint"/>
                        <mxPoint x="530" y="731" as="targetPoint"/>
                    </mxGeometry>
                </mxCell>
                <mxCell id="iFDQEzmeLvX-7vIE6FT4-24" style="edgeStyle=orthogonalEdgeStyle;rounded=0;orthogonalLoop=1;jettySize=auto;html=1;strokeColor=default;endArrow=none;endFill=0;dashed=1;dashPattern=8 8;" edge="1" parent="1" source="iFDQEzmeLvX-7vIE6FT4-7">
                    <mxGeometry relative="1" as="geometry">
                        <mxPoint x="210" y="800" as="sourcePoint"/>
                        <mxPoint x="530" y="801" as="targetPoint"/>
                        <Array as="points">
                            <mxPoint x="155" y="801"/>
                        </Array>
                    </mxGeometry>
                </mxCell>
                <mxCell id="iFDQEzmeLvX-7vIE6FT4-25" style="edgeStyle=orthogonalEdgeStyle;rounded=0;orthogonalLoop=1;jettySize=auto;html=1;strokeColor=default;dashed=1;dashPattern=12 12;" edge="1" parent="1" source="iFDQEzmeLvX-7vIE6FT4-18" target="iFDQEzmeLvX-7vIE6FT4-9">
                    <mxGeometry relative="1" as="geometry">
                        <Array as="points">
                            <mxPoint x="585" y="940"/>
                            <mxPoint x="-280" y="940"/>
                        </Array>
                    </mxGeometry>
                </mxCell>
            </root>
        </mxGraphModel>
    </diagram>
</mxfile>